<?xml version="1.0" encoding="utf-8"?>
<!-- Generator: Adobe Illustrator 24.0.1, SVG Export Plug-In . SVG Version: 6.00 Build 0)  -->
<svg version="1.1" id="Слой_1" xmlns="http://www.w3.org/2000/svg" xmlns:xlink="http://www.w3.org/1999/xlink" x="0px" y="0px"
	 viewBox="0 0 1920 1080" style="enable-background:new 0 0 1920 1080;" xml:space="preserve">
<style type="text/css">
	.st0{opacity:0;fill:#FEFEFE;}
	.st1{fill:#D7A82F;}
	.st2{fill:#F7F6F7;}
	.st3{fill:#070909;}
	.st4{fill:#FBFBFB;}
	.st5{fill:#F7F7F7;}
	.st6{fill:#07090A;}
	.st7{fill:#080A0B;}
	.st8{fill:#080A0A;}
	.st9{fill:#FEFEFE;}
	.st10{fill:#2F2D74;}
	.st11{fill:#090B0C;}
	.st12{fill:#0A0C0D;}
	.st13{fill:#D4A52B;}
	.st14{fill:#D2A42F;}
	.st15{fill:#D1A432;}
	.st16{fill:#2E2C74;}
	.st17{fill:#060809;}
	.st18{fill:#D5A529;}
	.st19{fill:#FCFBFB;}
	.st20{fill:#FBFBFA;}
	.st21{fill:#F9F9F9;}
	.st22{opacity:0;fill:#FDFBF8;}
	.st23{fill:#333175;}
</style>
<g>
	<path class="st0" d="M54,1143c0-401.7,0-803.3,0-1205c604.7,0,1209.3,0,1814,0c0,401.7,0,803.3,0,1205
		C1263.3,1143,658.7,1143,54,1143z M620.5,746.4c0.2,0.3,0.5,0.5,0.7,0.8c-7.2,8.3-14.9,16.2-21.5,24.9
		c-24.7,32.4-34.4,68.4-24.4,108.5c7.4,29.6,23.4,54.4,44.9,75.5c12,11.7,25.1,22.3,38.3,32.7c11.2,8.8,22.9,17.2,34.9,24.8
		c11.4,7.3,24.5,10.7,38,13.3c0.3-1.2,0.5-1.9,0.7-2.7c5.2-19.6,9-39.7,15.7-58.7c24-67.5,66.6-122.4,119.4-169.8
		c56.1-50.2,119.9-87.8,190-115c75.7-29.3,153.8-45,235.4-39.8c27.5,1.8,54.5,6.4,80.8,14.7c3.6,1.2,6.9,3.7,10,6.1
		c8.3,6.3,16,13.6,24.8,19.3c13.9,9,29.2,13.3,46.1,11c28.3-3.8,47.3-29.7,41.8-57.7c-4.2-21.1-17.7-35.3-35.5-46
		c-1.9-1.2-3.7-2.7-5.5-4.2c-6.6-5.6-12.8-11.6-19.7-16.8c-2.8-2.2-4.6-4.3-5.6-7.7c-9.8-32.1-19.8-64.2-29.7-96.3
		c-5.6-18.3-11.3-36.5-17-55c37.7-48.6,75.3-97.1,113.9-147.1c-15.8,0-30.1,0-45.6,0c6.2-8,11.4-14.8,17.2-22.3
		c-28.6-0.6-56-1.3-82.5-1.8c-0.8-14.7-0.8-28.5-2.4-42.2c-1.9-16.3-7.2-31.7-19.7-43.2c-5.5-5.1-13.1-7.8-18.9-12.6
		c-6-4.9-10.3-12-16.5-16.4c-15.5-11.1-33.4-12.1-51.3-8.3c-51.8,11.1-88.8,41.4-111.5,89.1c-5.5,11.5-8.1,24-8.7,36.7
		c-0.7,14.4,3.3,27.2,14.6,37c-5,3.1-9.6,5.9-14.3,8.8c-7.7-9.1-17.3-11-27.8-7.8c-15.3,4.6-30.4,9.6-45.4,15.1
		c-13.3,4.8-26.3,10.4-39.3,15.6c-6.9-7.6-15.5-11.3-25.3-11.9c-9.5-0.6-18.8,1.1-27.2,5.3c-11.7,5.9-22.8,12.8-34.6,19.6
		c-8-6.7-18.6-8.8-29.5-6.1c-10.6,2.5-21.2,5.7-31.1,10.2c-10.7,4.9-20.4,11.7-30.8,17.7c-8.9-6.4-15-7.9-24.8-5.7
		c-3.4,0.8-6.9,1.6-10,3.2c-17.8,9.7-35.7,19.3-53.2,29.5c-10.3,6-19.9,13.2-29.8,19.9c-7.4-9.9-17.4-13.6-28.8-11.5
		c-7.9,1.5-15.3,5.2-22.9,8.2c-3.1,1.3-6,3.3-9.1,5c-5.4-11-11.4-20.9-21.4-27.2c-8.6-5.4-15.9-11.9-23.3-19
		c-17-16.3-37.7-17.9-59.2-11c-24.5,7.9-44.8,23-62.2,41.3c-52.2,54.7-85,119.1-95.2,194.3c-2.1,15.4-1.4,31,4.4,45.8
		c5,12.7,12.8,23.1,26.2,27.8c3.2,1.1,5.3,2.7,7,5.6c9.2,15,23.7,21.6,40.3,18.5c4.1-0.8,8.1-2.3,12.9-3.8
		c-10.4,40.1-20.5,79.7-31,120.3c13.4-7.7,25.8-14.8,38.1-21.9c0.3,0.3,0.6,0.6,0.8,1c-3.5,14.2-7,28.3-10.9,43.8
		c14.3-8.4,27.2-15.9,40.1-23.4C576.6,772,598.5,759.2,620.5,746.4z"/>
	<path class="st1" d="M620.5,746.4c-22,12.8-44,25.6-65.9,38.4c-12.9,7.5-25.8,15-40.1,23.4c3.8-15.5,7.4-29.7,10.9-43.8
		c0.1-0.4,0.2-0.7,0.3-1.1c-0.4,0-0.7,0.1-1.1,0.2c-12.4,7.1-24.7,14.2-38.1,21.9c10.5-40.6,20.7-80.1,31-120.3
		c-4.8,1.4-8.7,3-12.9,3.8c-16.6,3.1-31.1-3.6-40.3-18.5c-1.8-2.9-3.8-4.4-7-5.6c-13.5-4.7-21.2-15-26.2-27.8
		c-5.8-14.8-6.5-30.4-4.4-45.8c10.2-75.3,43-139.7,95.2-194.3c17.5-18.3,37.7-33.4,62.2-41.3c21.5-7,42.2-5.4,59.2,11
		c7.3,7,14.6,13.5,23.3,19c10,6.3,16,16.3,21.4,27.2c3.1-1.8,5.9-3.8,9.1-5c7.5-3,15-6.7,22.9-8.2c11.4-2.1,21.4,1.6,28.8,11.5
		c10-6.7,19.6-13.9,29.8-19.9c17.5-10.3,35.4-19.9,53.2-29.5c3-1.6,6.5-2.5,10-3.2c9.8-2.2,15.9-0.6,24.8,5.7
		c10.3-6,20.1-12.8,30.8-17.7c9.9-4.5,20.5-7.7,31.1-10.2c11-2.6,21.5-0.6,29.5,6.1c11.9-6.8,23-13.7,34.6-19.6
		c8.4-4.2,17.7-5.9,27.2-5.3c9.9,0.6,18.4,4.3,25.3,11.9c13.1-5.2,26.1-10.8,39.3-15.6c15-5.4,30.2-10.4,45.4-15.1
		c10.5-3.2,20.2-1.3,27.8,7.8c4.7-2.9,9.3-5.8,14.3-8.8c-11.2-9.8-15.3-22.6-14.6-37c0.6-12.7,3.2-25.2,8.7-36.7
		c22.7-47.7,59.6-78,111.5-89.1c17.8-3.8,35.8-2.9,51.3,8.3c6.2,4.5,10.5,11.5,16.5,16.4c5.8,4.8,13.4,7.5,18.9,12.6
		c12.5,11.5,17.8,26.9,19.7,43.2c1.6,13.7,1.6,27.5,2.4,42.2c26.5,0.6,54,1.2,82.5,1.8c-5.8,7.6-11.1,14.3-17.2,22.3
		c15.4,0,29.8,0,45.6,0c-38.7,49.9-76.3,98.4-113.9,147.1c5.7,18.5,11.3,36.7,17,55c9.9,32.1,19.9,64.2,29.7,96.3
		c1,3.3,2.8,5.5,5.6,7.7c6.8,5.2,13.1,11.2,19.7,16.8c1.7,1.5,3.5,3,5.5,4.2c17.8,10.7,31.3,24.8,35.5,46
		c5.5,28-13.5,53.9-41.8,57.7c-16.9,2.3-32.2-2-46.1-11c-8.8-5.7-16.4-12.9-24.8-19.3c-3.1-2.4-6.4-4.9-10-6.1
		c-26.3-8.3-53.3-12.9-80.8-14.7c-81.6-5.2-159.7,10.5-235.4,39.8c-70,27.1-133.9,64.8-190,115c-52.9,47.3-95.4,102.3-119.4,169.8
		c-6.8,19-10.6,39.1-15.7,58.7c-0.2,0.8-0.4,1.6-0.7,2.7c-13.5-2.7-26.5-6-38-13.3c-12-7.7-23.7-16-34.9-24.8
		c-13.2-10.4-26.3-21-38.3-32.7c-21.5-21.1-37.5-45.9-44.9-75.5c-10-40.1-0.2-76.1,24.4-108.5c6.6-8.7,14.3-16.6,21.5-24.9
		c0.2-0.3,0.5-0.6,1.1-1.4C621.3,746.1,620.9,746.3,620.5,746.4z M1389.1,655.9L1389.1,655.9c0.3,0.6,0.4,1.5,0.9,2
		c8,6.2,15.8,12.8,24.3,18.2c10.9,6.9,23.1,10,36.2,9c23.4-1.7,40.4-20.3,39.6-43.7c-0.6-18.8-17.3-41.5-35.5-48.5
		c-0.3-0.1-0.6,0.1-0.9,0.2c-7.5-10.2-17.1-17.9-28.1-24.2c-16.7-54.1-33.5-108.2-50.2-162.2c35.8-46.2,71.2-91.9,107.1-138.3
		c-15.4-0.5-29.8-1-44.2-1.4c5.2-6.9,10.3-13.9,16.4-22c-7.2,0-12.9,0.1-18.7,0c-19.6-0.4-39.1-0.9-58.7-1.4c0.3-4,0.7-7.9,0.9-11.9
		c1.1-18.9,0.6-37.6-6.4-55.6c-5.8-14.8-15.2-26.1-31.1-30.6c-4.8-7.2-10-14-17.7-18.6c-14.7-8.7-30.6-8.8-46.5-5.3
		c-43.8,9.6-76.2,35.2-98.7,73.5c-9.5,16.2-14.6,34-13.1,53c1.4,18,11,27,28.9,28c0,0.4,0.1,0.7,0.1,1.1
		c-14.8,2.6-26.9,10.7-38.5,19.7c-6-12.1-11.7-15-24.7-11.7c-8.7,2.2-17.3,4.8-25.7,7.9c-19.7,7.4-39.3,15.2-59,22.8
		c4.8,2.3,9.5,3.4,14.1,4.5c8.3,2,11.1,6,10.3,14.6c-0.1,1.3-0.4,2.6-0.7,3.9c-5.9-7.7-13.5-12.1-23.4-11.9
		c-5.2-16.6-14.6-24.1-31.6-22.7c-8.2,0.6-16.9,2.9-24.2,6.7c-11.5,6-22.1,13.8-33.2,21c-4.8-7.8-13-10.3-22.6-9.9
		c-14.7,0.6-27.9,6-40.4,13.1c-10.1,5.8-19.7,12.6-29.5,19c-5.6-9.1-11.5-11.6-22.5-9c-2.7,0.7-5.4,1.6-8,2.6
		c-23.7,9.8-44.9,23.9-66,38.1c-5.5,3.7-11,7.6-16.5,11.5c6,1.1,11.6,1.1,17.2,1.1c5.7,0,7.8,1.6,7.6,7.3
		c-0.2,5.9-1.7,11.7-2.6,17.6c-6.4-12.1-13.8-16.2-25.9-14.4c-2.9-18.4-14.8-26.9-32.1-21.8c-8.3,2.5-15.9,7.3-23.7,11.1
		c-2.8,1.4-5.4,3.1-8,4.7c-3.7-12.2-10.1-22.9-20.2-30.8c-4.2-3.3-9.7-5-14.6-7.5C638,345.8,621.5,336.4,599,339
		c-12.5,1.4-23.7,6.4-34.4,12.8c-22.5,13.3-41.3,30.9-57.3,51.4c-39.6,51-67.1,107.3-73.9,172.4c-1.5,14-0.4,28,5.4,41.1
		c5.5,12.2,13.8,21.1,28,22.6c6.9,19.3,25.3,27.9,44,19.9c6.3-2.7,12-7,17.9-10.5c-7.4,29.1-14.9,58.2-22.3,87.3
		c-2.9,11.2-5.7,22.3-8.8,34.3c13.6-7.8,26.4-15.1,39.2-22.4c-3.7,14.9-7.3,29.8-11.1,44.9c0.8-0.3,1.2-0.3,1.5-0.5
		c29.1-17,58.2-34,87.3-51.2c1.5-0.9,2.8-2.8,3.3-4.5c3.2-11.5,6.1-23.1,9.1-34.7c0.3-1.3,0.1-2.7,0.1-4.1c5.7-3.1,11.3-6.1,17-9.2
		c-1.2,5.3-2.3,10.7-3.5,15.9c-2.2,9-4.5,17.9-7.1,27.8c6.8-3.7,12.6-6.9,18.4-10c6.7-3.5,13.5-7,20.2-10.4
		c-1.6,1.6-3.1,3.3-4.8,4.7c-22.6,18-44.7,36.5-62.1,59.7c-25.3,33.7-33.8,70.9-20.1,111.5c12.8,37.9,38.4,66,70.7,88.5
		c1.3,0.9,2.4,2.3,3.6,3.5c0.9,0.3,1.8,0.7,2.6,1l0,0c0.4,0.8,0.6,2,1.3,2.5c12.1,8.5,23.9,17.6,36.5,25.1c7.8,4.7,17,7,26,10.5
		c0.6-2.6,0.9-3.9,1.2-5.2c5.8-30.6,15.8-59.8,29.6-87.6c30.3-60.9,73.6-111.3,126.5-153.3c102-81.2,217.7-129.2,348.2-139.2
		c47.7-3.7,94.8,0.3,140.9,13.7c1.5,0.4,3.2,0.4,4.8,0.5l-0.1,0c0.5,0.4,1.1,0.7,1.6,1.1c3,2,5.9,3.9,8.9,5.8
		C1388,655.2,1388.6,655.5,1389.1,655.9z"/>
	<path class="st2" d="M1387.5,654.9c-3-2-5.9-3.9-8.9-5.8c-0.5-0.4-1.1-0.7-1.6-1.1l0.1,0c-6.4-5.8-12.8-11.6-19.3-17.2
		c-1.7-1.5-3.6-3-5.7-3.6c-22.8-7.6-46.3-12.3-70.1-14.9c-52.6-5.6-104.7-1.6-156.3,9.3c-57.2,12.1-111.8,31.8-163.6,58.8
		c-67.7,35.2-128,80.1-177.5,138.7c-36.3,42.9-63.9,90.7-79.1,145.1c-2.8,10.2-5,20.6-7.5,31.1c-0.9-0.1-1.8-0.1-2.5-0.4
		c-11.2-4.6-22.3-9.2-33.5-13.8l0,0c-0.9-0.3-1.8-0.7-2.6-1c-1.2-1.2-2.2-2.5-3.6-3.5c-32.3-22.5-57.9-50.6-70.7-88.5
		c-13.8-40.6-5.2-77.8,20.1-111.5c17.4-23.2,39.5-41.7,62.1-59.7c1.7-1.4,3.2-3.1,4.8-4.7l-0.1,0c0.6-0.5,1.2-0.9,1.8-1.4
		c16.1-10.9,32.2-21.7,48.3-32.6c8-4.8,16-9.6,23.9-14.4c4.6-2.6,9.2-5.3,13.9-7.7c25.3-12.9,50.7-25.7,76-38.6c4-1.8,8-3.6,12-5.4
		c28.7-11.1,57.4-22.1,86.1-33.2c3.9-1.3,7.8-2.6,11.8-4c27.7-7.8,55.5-15.6,83.2-23.4c7.3-1.6,14.7-3.2,22-4.8
		c13.7-2.5,27.3-5.3,41-7.6c13.2-2.2,26.5-4.1,39.8-6.1c13.2-1.2,26.4-2.9,39.7-3.5c19.7-0.9,39.5-1,59.2-1.5
		c18.8,1.3,37.7,2.5,56.5,3.7c9.1,1.2,18.2,2.3,28.1,3.6c-1.9-6.2-3.5-11.4-5.1-16.6c-5.7-20.5-11.5-41.1-17.2-61.6
		c-0.3,0-0.6,0.1-0.8,0.1c-4.3,16.6-8.6,33.2-13,50c-3.3,0.3-6.2,0.5-9.2,0.7c-11.7,1-23.4,1.9-35.2,2.9
		c-11.6,0.8-23.3,1.7-35.7,2.5c6.8-24.9,13.5-48.6,19.9-72.4c8.3-30.9,16.5-61.9,24.6-92.9c3-11.5,5.7-23.2,8.6-34.8
		c2.6-10.1,5.1-20.3,7.7-30.4l0,0c0.3-0.4,0.6-0.8,0.9-1.1c0.3-1.1,0.8-2.2,1.1-3.3c4.9-19.5,10.2-38.9,14.5-58.4
		c1.6-7.4,1.9-15.3,1.2-22.8c-1.1-12.1-8.3-15.2-18.8-9c-10.9,6.5-17.6,22-15.2,34.5c1,5.1,3.2,9,8.5,10.6c1,0.3,1.9,1,2.9,1.6
		c-9.9,18.7-33.7,34.6-61.2,41.1c-17.9-1-27.5-9.9-28.9-27.9c-1.5-19,3.6-36.8,13.1-53c22.4-38.3,54.8-63.9,98.7-73.5
		c15.9-3.5,31.8-3.3,46.5,5.3c7.7,4.5,12.9,11.3,17.7,18.6c6.7,13.9,9.4,28.6,9.9,43.9c0.8,26.3-3.5,52-9.4,77.4
		c-1.5,6.3-3.1,12.6-4.6,18.9c0.4,0.2,0.8,0.3,1.1,0.5c10.6-14.1,21.2-28.3,31.7-42.2c2.9-0.1,5.4-0.3,7.9-0.4
		c19.6,0.5,39.1,1,58.7,1.4c5.8,0.1,11.5,0,18.7,0c-6.1,8.2-11.3,15.1-16.4,22c-0.8,0.9-1.6,1.6-2.3,2.5
		c-23.4,30.3-46.9,60.5-70.3,90.8c-6.1,7.9-12.2,15.7-18.2,23.5c18.1,58.6,36.1,116.8,54.1,175.1c8.1,3.3,16,6.7,23.9,10
		c10.9,6.3,20.5,14,28.1,24.2c1.7,3.2,3.5,6.4,4.9,9.7c9.2,22,0.9,45-19.9,54.9c-14.6,6.9-29.3,5.8-43.9-0.2
		c-1.8-0.8-3.8-1.2-5.7-1.8l0,0.1C1388.6,655.5,1388,655.2,1387.5,654.9z M1325.6,544.7c-1.6-0.3-2.4-0.4-3.2-0.5
		c-37.3-6.5-74.9-9.3-112.8-8.7c-39.2,0.6-78.1,4.3-116.7,10.8c-82.9,13.9-162.7,38.4-239.7,71.9c-65,28.3-127.1,62-183.1,105.8
		c-22.2,17.4-43.6,35.7-60.3,58.7c-26.8,36.8-31.6,76.3-11.6,117.6c16.8,34.6,43.1,60.4,76.8,78.7c5.5,3,11.4,5,16.8,7.4
		c4.1-14.4,7.5-28.2,11.9-41.5c22.6-67.4,62.9-123.2,113.8-171.8c47.9-45.7,102.4-81.8,162.2-109.9c86.5-40.5,176.9-63.7,273.1-60.5
		c34.8,1.2,68.9,6.7,102,17.4c2.8,0.9,5.6,2.8,7.8,4.9c12.5,12.5,25.8,23.6,43.3,28.4c17.1,4.6,34.9-1.3,43.6-14.3
		c8.6-12.8,7-30-4.2-44.6c-7.6-9.9-17.6-16.6-28.9-21.5c-6.8-3-13.8-5.7-20.7-8.6c-18.8-60.8-37.5-121.4-56.3-182.1
		c33.5-43.3,66.8-86.3,100.1-129.3c-0.3-0.4-0.6-0.9-0.8-1.4c-21.8,0-43.5,0-65.7,0c-17.3,23-34.8,46.4-52.4,69.7
		c-0.6-1.1-0.5-1.8-0.4-2.4c6.7-28.6,14.2-57.1,20-85.9c4.3-21.4,5.1-43.3,0.7-65c-4.8-23.8-17.9-37.9-39.2-40.6
		c-7.6-0.9-15.8-0.4-23.3,1.2c-43.1,9.5-74.5,34.8-95.7,72.9c-7.4,13.4-11.4,28.1-10.9,43.6c0.5,17,11.3,26.3,26.6,22.4
		c18.3-4.7,32.8-15.7,46.1-29.1c-9.6-8.5-9.8-19.1-7.6-30.1c3-14.9,11.2-25.4,26.1-29.9c8.9-2.6,16.4,1.2,19.7,9.8
		c1.1,2.8,1.7,5.8,2.1,8.7c1.5,12.3-0.7,24.2-3.8,36c-20.2,77-40.4,154.1-60.7,231.1c-3.5,13.4-7.1,26.9-10.7,40.8
		c21.6-1.5,42.6-3.1,63.7-4.6c6.2-24,12.3-47.6,18.8-72.7C1303.6,467.5,1314.5,505.8,1325.6,544.7z"/>
	<path class="st3" d="M662.1,980.9c11.2,4.6,22.3,9.2,33.5,13.8c0.7,0.3,1.6,0.3,2.5,0.4c2.5-10.5,4.7-20.9,7.5-31.1
		c15.2-54.4,42.8-102.2,79.1-145.1c49.5-58.6,109.7-103.4,177.5-138.7c51.9-27,106.4-46.7,163.6-58.8
		c51.6-10.9,103.7-14.8,156.3-9.3c23.9,2.5,47.3,7.3,70.1,14.9c2.1,0.7,4,2.2,5.7,3.6c6.5,5.7,12.9,11.5,19.3,17.2
		c-1.6-0.2-3.3-0.1-4.8-0.5c-46.1-13.4-93.2-17.4-140.9-13.7c-130.6,10-246.2,58-348.3,139.2C830.3,815,787,865.3,756.7,926.2
		c-13.8,27.9-23.8,57.1-29.6,87.6c-0.3,1.3-0.6,2.5-1.2,5.2c-9-3.5-18.2-5.8-26-10.5c-12.7-7.5-24.4-16.6-36.5-25.1
		C662.7,983,662.5,981.8,662.1,980.9z"/>
	<path class="st4" d="M684.4,402.9c2.7-1.6,5.3-3.3,8-4.7c7.8-3.9,15.4-8.7,23.7-11.1c17.3-5.1,29.2,3.4,32.1,21.8
		c-0.1,8.1,0.5,16.4-0.4,24.4c-1.3,11.4-2.8,22.9-5.5,34c-8,32.5-16.5,64.7-24.9,97.1c-8.1,31.5-16.2,63.1-24.4,94.6
		c-0.4,1.5-1.7,3.2-3.1,4c-10.1,5.8-20.4,11.4-30.6,17c-5.1,2.8-10.2,5.8-15.3,8.7c-5.7,3.1-11.3,6.1-17,9.2
		c-7,3.7-13.9,7.3-21.1,11.1c0.1-1.4,0-2.6,0.3-3.7c8.2-31.6,16.5-63.2,24.7-94.8c7.7-29.8,15.4-59.6,22.9-89.4
		c1.5-5.9,2.5-11.9,3.7-18.1c-1.7,0-2.2-0.1-2.6,0c-0.6,0.3-1,0.7-1.5,1.1c-8.4,6.8-12.6,16.2-15.3,26.2
		c-8.2,30.4-16.1,61-24.2,91.5c-6.2,23.7-12.5,47.3-18.7,71c-2.2,8.3-4.4,16.5-6.4,24c-11.9,6.9-23,13.3-34,19.8
		c-6,3.6-12,7.4-17.9,11.1c-12.8,7.3-25.6,14.7-39.2,22.4c3.1-11.9,5.9-23.1,8.8-34.3c7.4-29.1,14.9-58.2,22.3-87.3
		c0.7-2.7,1.5-5.3,2.2-8c5.1-19.9,10.3-39.8,15.3-59.8c1.7-6.6,3-13.3,4.4-19.9c1.1-3.4,2.4-6.7,3.3-10.2
		c5.3-20.2,10.6-40.3,15.7-60.6c1.6-6.4,2.6-13,3.9-19.5l-0.1,0.1c0.4-0.8,0.8-1.5,1.2-2.3c3.2-9,4.8-18.2,3-27.8
		c-1.1-5.9-3.8-8.1-9.8-7.8c-9.3,0.6-16,6.4-21.8,12.5c-12,12.7-20.4,27.9-25.9,44.6c-3.7,11.3-7.5,22.6-7.3,34.6
		c0.2,9.1,3.9,14.8,15.1,14.1c5.3-0.4,10.4-3,15.6-4.5c2.6-0.8,5.1-1.6,9-2.7c-2.8,9.8-5.3,18.5-7.8,27.2
		c-9.8,23.7-21.8,46.1-41,63.7c-10.5,9.6-22,17.3-37.1,16.9c-14.2-1.5-22.6-10.4-28-22.6c-5.9-13.1-6.9-27.1-5.4-41.1
		c6.8-65.1,34.3-121.4,73.9-172.4c15.9-20.5,34.8-38.1,57.3-51.4c10.7-6.3,21.9-11.3,34.4-12.8c22.5-2.6,39,6.8,50.6,25.6
		c9.8,17.3,13.3,36.2,13.3,56.5C670.5,414.7,677.5,408.8,684.4,402.9z M653.2,440.5c3.9-21.5,2.8-41-4.2-59.9
		c-3.9-10.6-9.6-20.2-19-27c-14.7-10.6-30.4-9.3-46.1-3.1c-20,7.9-36.6,21-51.7,36c-26.9,26.7-47.1,58.1-63.2,92.2
		c-9.2,19.6-17.6,39.5-22.1,60.8c-2.5,11.5-4.2,23.3-6,34.9c-2,12.4-0.9,24.7,3.4,36.5c2.4,6.8,5.8,13,12.2,17.3
		c11,7.4,21.2,3.6,30.9-2.1c12.2-7.1,21.1-17.6,29.2-29c11.4-16.1,19.7-33.7,25.4-53.4c-3.8,0.8-6.9,1.6-10.1,2
		c-14.2,2-26.2-4.5-25.5-20.6c0.3-8.2,1.5-16.4,3.5-24.4c5-20.8,14.1-39.8,27.7-56.4c6.6-8,14.5-15.1,25.1-17.5
		c12.3-2.7,19-1.3,22,11.3c1.8,7.4,1.6,16-0.2,23.4c-8.5,35.5-17.9,70.7-27,106c-8,30.9-15.9,61.8-23.9,92.7
		c-8,31.2-16.1,62.3-24.5,94.9c25.2-14.8,49.4-28.9,73.6-43c1.2-4.1,2.4-8.2,3.4-12.3c6.9-26.5,13.8-53,20.7-79.4
		c6.8-26.3,13.3-52.7,20.6-78.9c3-10.6,7-21,11.8-31c2.5-5.2,7.1-9.8,11.8-13.4c5.2-4.1,12.3-0.8,13.1,5.4c0.4,3,0.2,6.4-0.5,9.3
		c-5.7,22.4-11.5,44.8-17.3,67.2c-9.3,36.1-18.6,72.3-27.9,108.5c-0.6,2.2-0.8,4.5-1.2,7.1c21.4-11.6,42.2-22.7,62.8-34.1
		c2.8-1.5,6.2-4.1,6.9-6.8c10.4-38.9,20.4-77.8,30.3-116.8c7.3-28.8,14.8-57.5,21.4-86.4c3-13,4.9-26.3,2.7-39.7
		c-2.5-15.2-11.6-21.6-25.7-15.8c-6.6,2.7-13.4,5.4-19,9.6c-12.4,9.3-24,19.5-36,29.3C658.4,435.7,656.3,437.7,653.2,440.5z"/>
	<path class="st5" d="M774.2,423.3c0.9-5.9,2.4-11.7,2.6-17.6c0.2-5.7-2-7.3-7.6-7.3c-5.6,0-11.2,0-17.2-1.1
		c5.5-3.8,10.9-7.7,16.5-11.5c21.1-14.2,42.3-28.3,66-38.1c2.6-1.1,5.3-2,8-2.6c11-2.6,16.9-0.2,22.5,9c9.8-6.4,19.4-13.2,29.5-19
		c12.5-7.1,25.7-12.5,40.4-13.1c9.5-0.4,17.8,2.1,22.6,9.9c11.1-7.2,21.7-15,33.2-21c7.3-3.8,16-6,24.2-6.7
		c17-1.3,26.4,6.1,31.6,22.7c2.2,11.7,1,23.2-2,34.6c-12.6,48.6-25.3,97.1-38,145.7c-3.7,14.3-7.5,28.5-11.2,42.8
		c-1.3,0.4-2.2,0.7-3.2,1c-14.6,4.3-29.3,8.6-43.9,12.9c-3.7,1-7.5,2.1-11.2,3.1c-8.2,2.2-16.4,4.3-25,6.6
		c14.8-56.9,29.4-113.1,44.1-169.6c-7.9,3-13.1,10-16,21.3c-7.4,28.5-14.7,56.9-22.1,85.4c-5.8,22.3-11.6,44.7-17.4,67
		c-1.5,0.6-2.7,1-4,1.5c-14.9,5.6-29.8,11.2-44.7,16.8c-4,1.4-8,2.9-11.9,4.3c-8.2,2.9-16.4,5.8-25.3,8.9
		c15.6-59.6,31-118.6,46.8-179c-2.9,2-4.9,3.1-6.6,4.6c-5.8,5.2-9,11.9-10.9,19.2c-7.7,29.7-15.3,59.5-23,89.2
		c-6.1,23.6-12.2,47.2-18.2,70.8c-16.7,7.2-33.2,14.3-49.6,21.3c-7.6,3.3-15.2,6.5-22.8,9.8c-4.7,1.8-9.4,3.7-14.7,5.7
		c0.3-1.7,0.4-2.7,0.7-3.6c15.4-59.2,30.9-118.3,46.3-177.5C766.6,454.2,770.3,438.7,774.2,423.3z M894,572.2c0.5-0.8,0.7-1,0.8-1.3
		c12.8-49.3,25.5-98.5,38.2-147.8c2.8-10.7,7.8-19.9,17.9-25.3c3.4-1.9,7.8-3.6,10.6-0.3c1.8,2.2,2,6.6,1.2,9.7
		c-10.9,42.9-22.1,85.6-33.2,128.4c-2.3,8.9-4.6,17.9-7.1,27.6c22.9-6.5,44.9-12.8,66.5-18.9c0.5-1,0.7-1.5,0.9-1.9
		c14.8-56.5,29.5-112.9,44.3-169.4c3.3-12.7,7.1-25.3,6.1-38.8c-1.2-16.4-12.4-25.4-28.5-22.7c-17.4,2.9-31.5,12.2-44.3,23.6
		c-5.2,4.6-9.7,9.8-15.4,15.6c0.3-2.4,0.4-3.4,0.6-4.4c1.5-9.6-2.6-15.8-12.3-16.8c-4.8-0.5-10,0-14.8,1.1
		c-22.4,5.4-41.1,17.6-58.3,32.5c-2.9,2.5-5.7,5.3-9.2,8.5c0.3-1.8,0.4-2.6,0.5-3.5c2.5-14.2-3.9-19.8-17.5-15
		c-6.7,2.4-13.3,5.3-19.5,8.8c-15.8,9-31.4,18.5-48.1,28.5c9.5,3.8,11.3,10.4,10.8,18c-0.3,4.5-0.6,9-1.7,13.3
		c-15.9,61.6-31.9,123.3-47.9,184.9c-2.7,10.2-5.3,20.5-8.2,31.8c24.2-10.3,47.3-20.1,70.2-29.8c0.6-2.3,1.1-4.1,1.5-5.8
		c12.9-50.1,25.8-100.1,38.7-150.2c2.6-10.2,7.2-19.4,16-25.7c3.8-2.7,8.2-5.5,12.8-2.4c4.4,3,2.8,7.7,1.7,11.9
		c-11.2,43.1-22.5,86.2-33.7,129.3c-2.7,10.2-5.3,20.5-8.3,31.7C849,588.7,871.7,580.4,894,572.2z"/>
	<path class="st3" d="M1425.7,568.9c-7.9-3.3-15.9-6.6-23.9-10c-18-58.3-36-116.5-54.1-175.1c6-7.8,12.1-15.6,18.2-23.5
		c23.4-30.3,46.9-60.5,70.3-90.8c0.7-0.9,1.6-1.7,2.3-2.5c14.4,0.5,28.8,0.9,44.2,1.4c-35.9,46.4-71.4,92.1-107.1,138.3
		C1392.2,460.7,1408.9,514.8,1425.7,568.9z"/>
	<path class="st6" d="M774.2,423.3c-3.9,15.5-7.6,31-11.6,46.4c-15.4,59.2-30.9,118.3-46.3,177.5c-0.2,0.9-0.3,1.9-0.7,3.6
		c5.3-2.1,10-3.9,14.7-5.7c-2.7,11-5.4,22.1-8.1,33.1c-16.1,10.9-32.2,21.7-48.3,32.6c-0.6,0.5-1.2,0.9-1.8,1.4l0.1,0
		c-6.8,3.5-13.5,6.9-20.2,10.4c-5.8,3.1-11.6,6.3-18.4,10c2.5-9.9,4.9-18.9,7.1-27.8c1.3-5.3,2.4-10.6,3.5-15.9
		c5.1-2.9,10.2-5.8,15.3-8.7c10.2-5.7,20.5-11.2,30.6-17c1.4-0.8,2.7-2.5,3.1-4c8.2-31.5,16.3-63,24.4-94.6
		c8.3-32.3,16.9-64.6,24.9-97.1c2.7-11.1,4.3-22.6,5.5-34c0.9-8.1,0.3-16.3,0.4-24.4C760.4,407.1,767.8,411.2,774.2,423.3z"/>
	<path class="st2" d="M1069.9,338.9c0.2-1.3,0.5-2.6,0.7-3.9c0.8-8.6-2-12.5-10.3-14.6c-4.7-1.1-9.3-2.2-14.1-4.5
		c19.7-7.6,39.2-15.4,59-22.8c8.4-3.1,17-5.7,25.7-7.9c12.9-3.3,18.6-0.5,24.7,11.7c11.6-9,23.7-17.2,38.5-19.7
		c4.2,0.5,8.6,0.6,12.7,1.6c10.5,2.6,17,10.1,21.9,19.3c0.3,0.7,0.5,1.3,0.8,2c0.6,2.3,1.1,4.5,1.7,6.8c3,12.9,2,25.8-1.1,38.5
		c-4.7,19.5-8.7,39.2-17.5,57.4c-5.5,11.3-14.4,18.4-27,20.5c-8.8,1.5-17.6,3.1-26.4,4.6c-7.7,0.9-15.3,1.7-23.8,2.7
		c5.6-21.9,10.9-42.9,16.6-64.9c-8.7,4.4-12.7,10.9-14.7,18.7c-8.1,30.9-16,61.7-24.1,92.6c-4.4,16.9-8.8,33.7-13.2,50.6
		c-1.1,0.2-1.9,0.4-2.7,0.6c-14.6,3-29.3,6-43.9,9c-7.3,1.4-14.7,2.8-22,4.2c-4.3,0.7-8.6,1.4-13.3,2.2
		c14.4-55.8,28.5-110.8,42.6-165.8C1063.7,364.7,1066.7,351.8,1069.9,338.9z M1147.7,313c0.2-1.9,0.4-3.9,0.6-5.9
		c1.1-13.4-4-17.8-17.1-14.5c-0.2,0-0.3,0.1-0.5,0.1c-19.3,6.8-38.5,13.6-57.8,20.5c-1.1,0.4-2.2,1.1-3.5,1.8
		c7.7,5.5,8.8,13.2,8.2,21.3c-0.3,4.5-1.2,8.9-2.3,13.2c-14,54.4-28.1,108.8-42.1,163.3c-1.8,7-3.5,14-5.3,21.4
		c22.4-4.5,44.1-8.7,65.8-13c0.5-1.9,1-3.5,1.4-5.1c11.6-44.6,23.2-89.1,34.8-133.7c1.8-7.1,5-13.5,10.7-18.2
		c3-2.5,6.7-4.4,10.4-5.4c4.4-1.2,7.6,1.5,7.7,6.1c0.1,3.1-0.6,6.3-1.4,9.3c-4.1,15.8-8.3,31.6-12.7,48.1c11.5-1.8,22-4,32.5-4.9
		c18-1.4,28.1-11.5,33-27.8c4.3-14.5,8.5-29,12.3-43.7c3.1-12.2,4.3-24.6,1.6-37.1c-3.3-15-14.5-24.8-27.6-24.2
		c-8.8,0.4-16.5,4-23.5,8.9C1164.3,299.7,1156.1,306.4,1147.7,313z"/>
	<path class="st6" d="M537,747.8c6-3.7,11.9-7.5,17.9-11.1c11-6.5,22.1-12.9,34-19.8c2-7.5,4.2-15.7,6.4-24
		c6.3-23.7,12.5-47.3,18.7-71c8-30.5,15.9-61,24.2-91.5c2.7-10,6.9-19.4,15.3-26.2c0.5-0.4,0.9-0.9,1.5-1.1c0.4-0.2,1,0,2.6,0
		c-1.3,6.2-2.2,12.2-3.7,18.1c-7.6,29.8-15.2,59.6-22.9,89.4c-8.2,31.6-16.5,63.2-24.7,94.8c-0.3,1.1-0.2,2.3-0.3,3.7
		c7.2-3.8,14.1-7.4,21.1-11.1c0,1.4,0.2,2.8-0.1,4.1c-2.9,11.6-5.9,23.2-9.1,34.7c-0.5,1.7-1.8,3.6-3.3,4.5
		c-29,17.1-58.2,34.2-87.3,51.2c-0.3,0.2-0.6,0.2-1.5,0.5C529.6,777.6,533.3,762.7,537,747.8z"/>
	<path class="st7" d="M1069.9,338.9c-3.1,12.9-6.1,25.8-9.4,38.6c-14.1,55-28.3,110-42.6,165.8c4.8-0.8,9-1.5,13.3-2.2
		c-0.7,3.5-1.4,6.9-2.1,10.3c-27.7,7.8-55.5,15.6-83.2,23.4c0.8-3.7,1.5-7.3,2.3-11c14.6-4.3,29.3-8.6,43.9-12.9
		c1-0.3,1.9-0.6,3.2-1c3.7-14.2,7.4-28.5,11.2-42.8c12.7-48.6,25.4-97.1,38-145.7c3-11.4,4.1-22.9,2-34.6
		C1056.4,326.8,1064,331.2,1069.9,338.9z"/>
	<path class="st6" d="M1228.5,298c-4.9-9.1-11.4-16.6-21.9-19.3c-4.1-1-8.4-1.1-12.7-1.6c0-0.4-0.1-0.7-0.1-1.1
		c27.5-6.5,51.3-22.4,61.2-41.1c-1-0.5-1.9-1.3-2.9-1.6c-5.4-1.5-7.6-5.4-8.5-10.6c-2.4-12.5,4.4-28.1,15.2-34.5
		c10.5-6.3,17.6-3.2,18.8,9c0.7,7.5,0.4,15.4-1.2,22.8c-4.3,19.6-9.6,39-14.5,58.4c-0.3,1.1-0.7,2.2-1.1,3.3
		c-0.3,0.4-0.6,0.8-0.9,1.1l0,0C1249.5,288,1239,293,1228.5,298z"/>
	<path class="st3" d="M1389.1,655.8c1.9,0.6,3.9,1,5.7,1.8c14.6,6,29.3,7.1,43.9,0.2c20.8-9.8,29.2-32.9,19.9-54.9
		c-1.4-3.3-3.3-6.5-4.9-9.7c0.3-0.1,0.7-0.3,0.9-0.2c18.2,7,34.8,29.7,35.5,48.5c0.8,23.3-16.2,41.9-39.6,43.7
		c-13.1,1-25.3-2.1-36.2-9c-8.5-5.4-16.3-12.1-24.3-18.2C1389.5,657.4,1389.4,656.5,1389.1,655.8z"/>
	<path class="st8" d="M1377.5,243.6c-2.5,0.1-5,0.3-7.9,0.4c-10.4,13.9-21.1,28-31.7,42.2c-0.4-0.2-0.8-0.3-1.1-0.5
		c1.5-6.3,3.1-12.6,4.6-18.9c5.9-25.5,10.2-51.1,9.4-77.4c-0.5-15.3-3.3-30-9.9-43.9c15.9,4.6,25.4,15.9,31.1,30.6
		c7,17.9,7.5,36.7,6.4,55.6C1378.2,235.6,1377.8,239.6,1377.5,243.6z"/>
	<path class="st3" d="M550.8,561c-1.5,6.6-2.8,13.3-4.4,19.9c-5,20-10.2,39.9-15.3,59.8c-0.7,2.7-1.5,5.3-2.2,8
		c-6,3.5-11.6,7.8-17.9,10.5c-18.7,8-37.1-0.5-44-19.9c15.1,0.4,26.6-7.3,37.1-16.9c19.3-17.6,31.2-40,41-63.7
		C547,559.5,548.9,560.3,550.8,561z"/>
	<path class="st8" d="M684.4,402.9c-6.9,5.9-13.9,11.8-21.4,18.2c0-20.3-3.5-39.1-13.3-56.5c4.9,2.4,10.4,4.1,14.6,7.4
		C674.3,380,680.7,390.7,684.4,402.9z"/>
	<path class="st3" d="M659.4,979.9c0.9,0.3,1.8,0.7,2.6,1C661.2,980.6,660.3,980.2,659.4,979.9z"/>
	<path class="st9" d="M620.5,746.4c0.4-0.1,0.8-0.3,1.8-0.6c-0.6,0.8-0.8,1.1-1.1,1.4C621,746.9,620.8,746.7,620.5,746.4z"/>
	<path class="st9" d="M524.5,763.4c0.4,0,0.7-0.1,1.1-0.2c-0.1,0.4-0.2,0.7-0.3,1.1C525.1,764,524.8,763.7,524.5,763.4z"/>
	<path class="st3" d="M1377,647.9c0.5,0.4,1.1,0.7,1.6,1.1C1378.1,648.6,1377.5,648.3,1377,647.9z"/>
	<path class="st3" d="M1387.5,654.9c0.6,0.3,1.1,0.7,1.6,1C1388.6,655.5,1388,655.2,1387.5,654.9z"/>
	<path class="st10" d="M1325.6,544.7c-11.1-39-22-77.2-33.3-117c-6.5,25.1-12.6,48.7-18.8,72.7c-21.1,1.5-42.2,3-63.7,4.6
		c3.7-13.9,7.2-27.3,10.7-40.8c20.2-77,40.5-154,60.7-231.1c3.1-11.8,5.3-23.7,3.8-36c-0.4-2.9-1-5.9-2.1-8.7
		c-3.3-8.6-10.8-12.5-19.7-9.8c-14.9,4.4-23.1,15-26.1,29.9c-2.3,11.1-2.1,21.6,7.6,30.1c-13.4,13.4-27.9,24.4-46.1,29.1
		c-15.3,3.9-26.1-5.4-26.6-22.4c-0.5-15.5,3.5-30.2,10.9-43.6c21.2-38.2,52.6-63.4,95.7-72.9c7.5-1.7,15.7-2.2,23.3-1.2
		c21.3,2.6,34.4,16.8,39.2,40.6c4.4,21.7,3.6,43.6-0.7,65c-5.8,28.8-13.2,57.3-20,85.9c-0.2,0.6-0.3,1.3,0.4,2.4
		c17.6-23.4,35.1-46.8,52.4-69.8c22.1,0,43.9,0,65.7,0c0.3,0.4,0.6,0.9,0.8,1.4c-33.3,43-66.6,86-100.1,129.3
		c18.8,60.7,37.5,121.4,56.3,182.1c6.9,2.9,13.9,5.6,20.7,8.6c11.3,4.9,21.3,11.6,28.9,21.5c11.2,14.6,12.8,31.8,4.2,44.6
		c-8.7,13-26.5,18.9-43.6,14.3c-17.5-4.7-30.9-15.8-43.3-28.4c-2.1-2.1-4.9-4-7.8-4.9c-33.2-10.7-67.2-16.2-102-17.4
		c-96.2-3.2-186.7,19.9-273.1,60.5c-59.8,28-114.3,64.2-162.2,109.9c-51,48.6-91.2,104.4-113.8,171.8c-4.5,13.4-7.8,27.1-11.9,41.5
		c-5.4-2.4-11.4-4.5-16.8-7.4c-33.7-18.3-60.1-44.1-76.8-78.7c-20-41.3-15.2-80.8,11.6-117.6c16.7-23,38.1-41.3,60.3-58.7
		c56.1-43.8,118.1-77.5,183.1-105.8c77-33.5,156.8-58,239.7-71.9c38.6-6.5,77.5-10.2,116.7-10.8c37.9-0.5,75.5,2.2,112.8,8.7
		C1323.2,544.3,1324,544.5,1325.6,544.7z M916,674L916,674c0.8-0.3,1.6-0.7,2.5-1.1c6.4-3.9,13-7.4,19.1-11.7
		c6.1-4.3,6.8-9.8,3.1-16.1c-4.2-7.1-8.5-14.3-12.8-21.4c-4-6.6-10.5-9.9-17.8-7.4c-9.5,3.2-18.7,7.5-28.1,11.3
		c0.6,1.4,0.9,2.3,1.3,3.2c-1.1,0.6-2.2,1.3-3.6,2.1c9.9,15.3,19.5,30.3,29.5,45.8c1.9-1.5,3.4-2.6,4.9-3.7l-0.1,0
		C914.7,674.7,915.4,674.4,916,674z M973,645c0.5-0.3,1-0.7,1.6-1l0.1-0.1c0.3-0.3,0.7-0.5,1-0.8c3.8-2.7,7.3-5.9,6.1-11
		c-1.1-5.1-4.5-8.7-9.7-10.3c-6.3-1.9-12.7-3.7-18.8-6.1c-2.1-0.8-3.6-3.2-5.4-4.8c3.6,0,7.1,0,10.7,0c0,0.5,0.1,1,0.1,1.4
		c1.7-0.6,3.3-1.2,5.3-2c-0.4-1-0.8-1.7-1.1-2.4c1.3-0.6,2.5-1.2,3.8-1.9c-8-10.4-27.3-6.4-32.7,6.5c-4.3,6.4-1.2,14.2,7.1,17
		c6.3,2.1,12.7,3.7,19.1,5.5c3,0.9,5.6,2.2,5.9,5.8c-3.7,2.5-7.1,1.9-10.7-1.7c-1.6,1.6-3.2,3.2-4.7,4.7c-1.2,0.7-2.4,1.4-3.6,2.1
		c-0.1,0.6-0.2,1.2-0.3,1.8c3.3,1.3,6.8,3.9,10,3.6c4.2-0.3,8.2-2.9,12.3-4.6l0,0C970.3,646.3,971.7,645.6,973,645
		C973,645,973,645,973,645z M792.9,762c0.4-0.3,0.8-0.5,1.1-0.8c4.3-3.6,8.8-7.1,13-10.9c6.8-6,7.4-14.9,1.3-22.4
		c-1.6,1.7-3.2,3.3-4.7,5c-1,0.8-1.9,1.7-2.5,2.2c0.3,3.1,0.6,5.7,0.9,8.2c-7.6,7.7-10,7.5-16-1.5c-6.6-10-13.3-19.9-19.7-30
		c-1.3-2.1-1.6-4.9-2.3-7.3c5-2.8,9.8-8.5,16.1,0.2c1.7-3,2.7-4.9,3.8-6.8c1.1-1,2.1-1.9,3.2-2.8c-6.4-9.2-13.1-10.5-22-4.6
		c-2.5,1.7-5.3,3-7.3,5.1c-2.7,2.9-4.7,6.4-7,9.7c-3.6,6.1-2.7,12.1,0.9,17.8c4.5,7.2,9.3,14.1,14,21.2c3.1,4.7,6,9.5,9.4,14.1
		C780.1,765.1,787.3,766.4,792.9,762L792.9,762z M724.1,734.5c3.8-2.9,7.7-5.7,11.4-8.7c0.6-0.5,0.4-2,0.6-3
		c1.2-0.9,2.4-1.7,3.7-2.7c-2.1-3-3.6-5.2-5.4-7.8c-8.9,7.1-17.3,13.7-25.7,20.6c-0.9,0.8-0.9,2.7-1.3,4c-1,1-1.9,2.1-2.9,3.1
		c14.8,22.1,29.4,43.7,44.2,65.7c1.3-1.4,2.1-2.2,2.8-3c8.7-8.4,17.5-16.8,26.2-25.3c-2-2.9-3.4-5.1-5-7.5
		c-5.3,5-10.3,9.7-15.5,14.8c-4.9-7.4-9.6-14.3-14.3-21.3c3.8-3.5,7.2-6.7,10.5-9.8c-2-3-3.5-5.3-5.2-7.9c-3.8,3.3-7.3,6.2-10.9,9.4
		C732.7,747.9,728.4,741.2,724.1,734.5z M867.1,674c6-3.1,8.3-2.5,12,3c3.1,4.6,6.2,9.3,9.6,14.4c1.7-1.6,2.9-2.8,4.2-4
		c3.5-2.2,6.9-4.3,10.6-6.6c-3.6-5.5-7.2-10.3-10.1-15.5c-2.8-4.9-6.1-8-12.5-6.4c3.5-7.3,0.9-12.8-3.7-17.7c-4.4-4.8-10.4-6-16-3.9
		c-9.1,3.4-17.7,8.1-26.5,12.3c0.6,1.5,1,2.4,1.4,3.3c-1.1,0.7-2.1,1.4-3.5,2.3c11.2,16.8,22.1,33.4,33.4,50.4
		c2.1-1.5,3.8-2.7,5.6-3.9c3-2.2,6-4.5,9.1-6.8C875.9,687.8,871.5,680.9,867.1,674z M836,726.9c4.2-3.2,8.5-6.3,12.6-9.7
		c6.2-5.1,7.6-12.8,3.3-19.6c-6.5-10.2-13.2-20.4-20-30.3c-4.9-7.2-13-8.9-20.7-4.8c-3.1,1.6-6,3.6-9.1,5.2
		c-4.2,2.1-6.8,5.2-7.7,9.8c-3.5,5-3.2,10.2-0.1,15c7,11.1,14.3,22,21.8,32.8C821.2,732.2,829.3,732.7,836,726.9z M705.7,800.1
		c4.2-0.3,6.8,2.1,8.9,5.3c4.8,7.1,9.7,14.1,15.4,22.4c1-1.7,1.6-2.7,2.2-3.7c3.5-3.3,7.1-6.5,10.3-9.5c-0.3-1.2-0.4-1.6-0.5-1.8
		c-5.6-8.3-11.3-16.4-16.8-24.8c-3-4.5-6.4-7.4-12.2-4.8c0.5-11.4-1.5-17.4-8.7-26c-6.3-7.6-14.7-8.2-22-1.5
		c-5.2,4.7-10.3,9.5-15.3,14.4c-1,1-1.2,2.7-1.8,4.1c-0.9,1.1-1.7,2.3-2.5,3.4c16.2,23.8,32.2,47.3,48.3,71c1.3-1.1,2.2-1.9,3.1-2.6
		c3.4-3.3,6.8-6.6,10.1-9.9c-7.6-11.2-14.8-21.7-22-32.4C703.5,802.1,704.6,801.1,705.7,800.1z"/>
	<path d="M1158.9,427.8c8.8-1.5,17.6-3.2,26.4-4.6c12.6-2.1,21.5-9.1,27-20.5c8.9-18.2,12.8-37.9,17.5-57.4
		c3.1-12.7,4.1-25.6,1.1-38.5c-0.5-2.3-1.1-4.5-1.7-6.8c9.5,1.3,16.9,6.1,23,13.3c-2.8,11.6-5.6,23.2-8.6,34.8
		c-8.1,31-16.3,62-24.6,92.9c-6.4,23.8-13,47.6-19.9,72.4c12.4-0.9,24.1-1.7,35.7-2.5c-1.4,5.7-2.7,11.4-4.1,17.1
		c-19.8,0.5-39.5,0.6-59.2,1.5c-13.3,0.6-26.5,2.3-39.7,3.5c0.1-0.8,0.2-1.7,0.4-2.5C1141.2,496.3,1150.1,462,1158.9,427.8z
		 M1157.5,461.3c-5.6,21.5-11.1,42.8-16.7,64.4c12.7-0.9,24.8-2,36.8-2.5c14.3-0.6,28.6-0.8,42.9-1.1c2.5-0.1,5.1,0.1,4.4-3.9
		c-11.4,0.8-22.4,1.5-33.8,2.3c5.8-22.1,11.5-43.8,17.5-66.3C1191.1,456.6,1174.6,458.9,1157.5,461.3z"/>
	<path class="st6" d="M1158.9,427.8c-8.9,34.3-17.7,68.5-26.6,102.8c-0.2,0.8-0.3,1.6-0.4,2.5c-13.3,2-26.6,3.8-39.8,6.1
		c-13.7,2.3-27.4,5-41,7.6c0.7-3.2,1.4-6.5,2.1-9.7c14.6-3,29.3-6,43.9-9c0.8-0.2,1.6-0.3,2.7-0.6c4.4-16.9,8.8-33.7,13.2-50.6
		c8-30.9,16-61.7,24.1-92.6c2-7.8,6-14.3,14.7-18.7c-5.6,22-11,43-16.6,64.9C1143.6,429.5,1151.3,428.7,1158.9,427.8z"/>
	<path class="st11" d="M753.1,635.2c16.5-7.1,32.9-14.1,49.6-21.3c6.1-23.5,12.1-47.2,18.2-70.8c7.7-29.7,15.3-59.5,23-89.2
		c1.9-7.4,5.1-14.1,10.9-19.2c1.7-1.5,3.7-2.6,6.6-4.6c-15.8,60.3-31.2,119.4-46.8,179c8.9-3.1,17.1-6,25.3-8.9
		c-1.3,5.8-2.6,11.6-3.9,17.3c-25.3,12.8-50.7,25.7-76,38.6c-4.7,2.4-9.3,5.1-13.9,7.7C748.5,654.2,750.8,644.7,753.1,635.2z"/>
	<path class="st12" d="M851.9,595.8c14.9-5.6,29.8-11.2,44.7-16.8c1.2-0.5,2.5-0.9,4-1.5c5.8-22.3,11.6-44.6,17.4-67
		c7.4-28.5,14.7-56.9,22.1-85.4c2.9-11.2,8.1-18.2,16-21.3c-14.7,56.5-29.3,112.8-44.1,169.6c8.6-2.3,16.8-4.5,25-6.6
		c-1,3.9-1.9,7.9-2.8,11.8c-28.7,11.1-57.4,22.1-86.1,33.2C849.3,606.6,850.6,601.2,851.9,595.8z"/>
	<path class="st6" d="M1230.9,528c1.4-5.7,2.7-11.4,4.1-17.1c11.7-1,23.4-1.9,35.2-2.9c2.9-0.2,5.9-0.5,9.2-0.7
		c4.4-16.8,8.7-33.4,13-50c0.3,0,0.6-0.1,0.8-0.1c5.7,20.5,11.5,41.1,17.2,61.6c-1,3.7-2.1,7.3-3.2,11.3c-6.6,0.6-13.2,1.2-19.8,1.7
		C1268.5,530.5,1249.7,529.3,1230.9,528z"/>
	<path class="st1" d="M753.1,635.2c-2.3,9.5-4.7,19-7,28.5c-8,4.8-16,9.6-23.9,14.4c2.7-11,5.4-22.1,8.1-33.1
		C737.9,641.7,745.5,638.5,753.1,635.2z M739.7,659.8c0.9-4,1.8-7.8,2.9-12.5c-2.8,1.2-4.4,1.9-6.1,2.6c-1.1,4.3-2.1,8.4-3.5,13.7
		C735.7,662.1,737.5,661.1,739.7,659.8z"/>
	<path class="st13" d="M1252.3,313.3c-6.1-7.2-13.5-12-23-13.3c-0.3-0.7-0.5-1.3-0.8-2c10.5-5,21-10.1,31.5-15.1
		C1257.4,293.1,1254.8,303.2,1252.3,313.3z M1246.4,298.7c0.2,0.5,0.3,1,0.5,1.5c0.7-0.5,1.4-0.9,2.1-1.4c-0.2-0.3-0.4-0.7-0.6-1
		C1247.8,298.1,1247.1,298.4,1246.4,298.7z"/>
	<path class="st13" d="M1053.1,537c-0.7,3.2-1.4,6.5-2.1,9.7c-7.3,1.6-14.7,3.2-22,4.8c0.7-3.5,1.4-6.9,2.1-10.3
		C1038.5,539.7,1045.8,538.3,1053.1,537z"/>
	<path class="st13" d="M851.9,595.8c-1.3,5.4-2.6,10.8-3.8,16.2c-4,1.8-8,3.6-12,5.4c1.3-5.8,2.6-11.5,3.9-17.3
		C843.9,598.7,847.9,597.3,851.9,595.8z"/>
	<path class="st14" d="M934.1,578.8c1-3.9,1.9-7.9,2.8-11.8c3.7-1,7.5-2.1,11.2-3.1c-0.8,3.7-1.5,7.3-2.3,11
		C942,576.2,938,577.5,934.1,578.8z"/>
	<path class="st15" d="M1287.4,531.8c6.6-0.6,13.1-1.2,19.8-1.7c1.1-4,2.2-7.6,3.2-11.3c1.6,5.2,3.2,10.4,5.1,16.6
		C1305.6,534.1,1296.5,532.9,1287.4,531.8z"/>
	<path class="st1" d="M672,712.1c0.6-0.5,1.2-0.9,1.8-1.4C673.3,711.1,672.7,711.6,672,712.1z"/>
	<path class="st13" d="M1259.9,283c0.3-0.4,0.6-0.8,0.9-1.1C1260.5,282.2,1260.2,282.6,1259.9,283z"/>
	<path class="st16" d="M653.2,440.5c3.1-2.8,5.1-4.8,7.3-6.6c11.9-9.9,23.6-20,36-29.3c5.6-4.2,12.4-6.9,19-9.6
		c14.1-5.8,23.2,0.6,25.7,15.8c2.2,13.5,0.3,26.8-2.7,39.7c-6.7,28.9-14.1,57.7-21.4,86.4c-9.9,39-20,77.9-30.3,116.8
		c-0.7,2.7-4.2,5.3-6.9,6.8c-20.6,11.4-41.4,22.6-62.8,34.1c0.4-2.6,0.6-4.9,1.2-7.1c9.3-36.2,18.6-72.3,27.9-108.5
		c5.8-22.4,11.7-44.8,17.3-67.2c0.8-3,0.9-6.3,0.5-9.3c-0.8-6.2-8-9.4-13.1-5.4c-4.6,3.6-9.3,8.2-11.8,13.4
		c-4.8,9.9-8.8,20.3-11.8,31c-7.3,26.2-13.7,52.6-20.6,78.9c-6.9,26.5-13.8,53-20.7,79.4c-1.1,4.1-2.3,8.1-3.4,12.3
		c-24.2,14.2-48.4,28.3-73.6,43c8.4-32.6,16.5-63.8,24.5-94.9c8-30.9,15.9-61.8,23.9-92.7c9.1-35.3,18.5-70.6,27-106
		c1.8-7.5,2-16,0.2-23.4c-3.1-12.6-9.7-14-22-11.3c-10.5,2.3-18.5,9.5-25.1,17.5c-13.7,16.5-22.7,35.6-27.7,56.4
		c-1.9,8-3.1,16.2-3.5,24.4c-0.7,16.1,11.3,22.5,25.5,20.6c3.2-0.4,6.3-1.2,10.1-2c-5.7,19.7-14,37.3-25.4,53.4
		c-8,11.4-17,21.9-29.2,29c-9.8,5.7-20,9.5-30.9,2.1c-6.4-4.3-9.8-10.6-12.2-17.3c-4.2-11.8-5.3-24.1-3.4-36.5
		c1.8-11.7,3.5-23.4,6-34.9c4.6-21.3,12.9-41.2,22.1-60.8c16.1-34.1,36.3-65.5,63.2-92.2c15.1-15,31.7-28.1,51.7-36
		c15.7-6.2,31.4-7.5,46.1,3.1c9.4,6.8,15,16.4,19,27C656.1,399.5,657.2,419,653.2,440.5z"/>
	<path class="st17" d="M543.9,534.2c-5.2,1.6-10.3,4.2-15.6,4.5c-11.2,0.8-14.9-5-15.1-14.1c-0.3-12,3.5-23.3,7.3-34.6
		c5.5-16.7,13.9-31.9,25.9-44.6c5.8-6.1,12.5-11.9,21.8-12.5c6-0.4,8.8,1.9,9.8,7.8c1.8,9.6,0.2,18.8-3,27.8
		c-0.4,0.8-0.8,1.5-1.2,2.3l0.1-0.1c-2,1.8-4.2,3.3-5.8,5.4c-12.4,16.4-20.1,35-24.5,55C543.3,532.1,543.8,533.2,543.9,534.2z"/>
	<path class="st18" d="M543.9,534.2c-0.2-1-0.7-2.1-0.5-3.1c4.4-20,12.1-38.6,24.5-55c1.6-2.1,3.8-3.6,5.8-5.4
		c-1.3,6.5-2.3,13.1-3.9,19.5c-5.1,20.2-10.4,40.4-15.7,60.6c-0.9,3.4-2.2,6.8-3.3,10.2c-1.9-0.8-3.8-1.5-5.8-2.3
		c2.5-8.7,5-17.4,7.8-27.2C549,532.7,546.5,533.5,543.9,534.2z M557,512.4c-0.3-0.2-0.6-0.4-0.9-0.6c-1.3,3.9-2.5,7.8-3.8,11.7
		c0.5,0.2,1,0.3,1.4,0.4C554.9,520.1,556,516.2,557,512.4z"/>
	<path class="st18" d="M573.7,470.8c0.4-0.8,0.8-1.5,1.2-2.3C574.6,469.3,574.2,470.1,573.7,470.8z"/>
	<path class="st10" d="M894,572.2c-22.3,8.2-45,16.5-68.7,25.2c2.9-11.2,5.6-21.4,8.3-31.7c11.2-43.1,22.5-86.2,33.7-129.3
		c1.1-4.2,2.7-8.9-1.7-11.9c-4.6-3.1-9-0.3-12.8,2.4c-8.8,6.3-13.4,15.5-16,25.7c-12.9,50.1-25.8,100.1-38.7,150.2
		c-0.5,1.8-0.9,3.5-1.5,5.8c-22.9,9.7-46,19.5-70.2,29.8c2.9-11.3,5.6-21.5,8.2-31.8c16-61.6,32-123.3,47.9-184.9
		c1.1-4.3,1.5-8.9,1.7-13.3c0.5-7.6-1.4-14.3-10.8-18c16.8-10,32.3-19.4,48.1-28.5c6.2-3.5,12.8-6.4,19.5-8.8
		c13.6-4.8,20,0.8,17.5,15c-0.1,0.8-0.3,1.6-0.5,3.5c3.5-3.2,6.3-5.9,9.2-8.5c17.2-14.9,35.9-27.1,58.3-32.5
		c4.8-1.1,10-1.7,14.8-1.1c9.7,1.1,13.8,7.2,12.3,16.8c-0.2,1-0.3,2-0.6,4.4c5.7-5.8,10.2-11.1,15.4-15.6
		c12.9-11.4,27-20.6,44.3-23.6c16.1-2.7,27.3,6.3,28.4,22.7c1,13.4-2.8,26-6.1,38.8c-14.8,56.5-29.5,112.9-44.3,169.4
		c-0.1,0.5-0.4,0.9-0.9,1.9c-21.6,6.2-43.6,12.4-66.5,18.9c2.5-9.7,4.8-18.7,7.1-27.6c11.1-42.8,22.3-85.6,33.2-128.4
		c0.8-3,0.5-7.5-1.2-9.7c-2.7-3.4-7.2-1.6-10.6,0.3c-10.1,5.5-15.1,14.6-17.9,25.3c-12.8,49.3-25.5,98.5-38.2,147.7
		C894.7,571.2,894.4,571.5,894,572.2z"/>
	<path class="st10" d="M1147.7,313c8.4-6.5,16.6-13.3,25.2-19.4c7-4.9,14.8-8.5,23.5-8.9c13.1-0.7,24.3,9.2,27.6,24.2
		c2.7,12.5,1.5,24.9-1.6,37.1c-3.7,14.6-7.9,29.2-12.3,43.7c-4.9,16.4-15.1,26.4-33,27.8c-10.6,0.8-21,3.1-32.5,4.9
		c4.4-16.5,8.6-32.3,12.7-48.1c0.8-3,1.5-6.2,1.4-9.3c-0.1-4.5-3.3-7.3-7.7-6.1c-3.7,1-7.4,3-10.4,5.4c-5.7,4.7-8.9,11.1-10.7,18.2
		c-11.6,44.6-23.2,89.1-34.8,133.7c-0.4,1.6-0.9,3.2-1.4,5.1c-21.7,4.3-43.4,8.6-65.8,13c1.8-7.4,3.5-14.4,5.3-21.4
		c14-54.4,28.1-108.8,42.1-163.3c1.1-4.3,2-8.8,2.3-13.2c0.6-8.1-0.6-15.7-8.2-21.3c1.4-0.7,2.4-1.4,3.5-1.8
		c19.2-6.9,38.5-13.7,57.8-20.5c0.2-0.1,0.3-0.1,0.5-0.1c13.1-3.3,18.2,1.1,17.1,14.5C1148.1,309.1,1147.9,311,1147.7,313z"/>
	<path class="st19" d="M665.3,774c0.6-1.4,0.8-3.1,1.8-4.1c5-4.9,10.1-9.7,15.3-14.4c7.3-6.7,15.7-6.1,22,1.5
		c7.2,8.7,9.3,14.7,8.7,26c5.8-2.6,9.2,0.3,12.2,4.8c5.5,8.3,11.2,16.5,16.8,24.8c0.2,0.3,0.2,0.6,0.5,1.8c-3.2,3-6.8,6.2-10.3,9.5
		c-5.2-7.7-10.3-15.5-15.7-23.1c-3.6-5-7-5.1-10.8-0.8c-1.1,1-2.1,2-3.6,3.4c7.3,10.7,14.4,21.2,22,32.4c-3.3,3.3-6.7,6.6-10.1,9.9
		c-3.3-5-6.7-9.9-10-14.9C691.1,811.9,678.2,793,665.3,774z M682,770c-0.3,0.7-0.5,1.4-0.8,2.1c5,7.5,9.9,15,15.1,22.8
		c1.6-1.8,2.7-3,3.8-4.2c4.4-3.9,3.3-8.3,1-12.6c-1.6-3.1-3.7-5.9-5.8-8.7C690.8,763.1,686.5,763.4,682,770C682,770,682,770,682,770
		z"/>
	<path class="st4" d="M794.5,677.3c0.9-4.6,3.5-7.7,7.7-9.8c3.1-1.6,6-3.5,9.1-5.2c7.6-4,15.7-2.3,20.7,4.8
		c6.9,10,13.5,20.1,20,30.3c4.3,6.8,2.8,14.6-3.3,19.6c-4.1,3.4-8.4,6.5-12.6,9.7c-8.5,2.5-14.4-1-18.9-8.1
		c-5.9-9.3-11.9-18.5-18.2-27.5C796,687,794.2,682.5,794.5,677.3z M838.2,714.9c4-2.3,4.8-5.8,2.5-9.3
		c-6.8-10.8-13.8-21.5-21.2-31.9c-1.3-1.8-5-2.7-7.4-2.4c-1.6,0.2-2.8,3.3-4.2,5.1c0.2,1.4,0,3.1,0.8,4.2
		c7,10.8,14.1,21.6,21.4,32.2C831.9,715.5,834.8,717.2,838.2,714.9z"/>
	<path class="st20" d="M836,653c-0.4-0.9-0.8-1.8-1.4-3.3c8.9-4.2,17.5-8.8,26.5-12.3c5.6-2.1,11.6-0.8,16,3.9
		c4.6,4.9,7.2,10.4,3.7,17.7c6.3-1.6,9.7,1.5,12.5,6.4c2.9,5.2,6.5,10,10.1,15.5c-3.7,2.3-7.1,4.4-10.6,6.6c-1.2-1-2.6-1.9-3.4-3.1
		c-2.8-4-5.4-8.3-8.3-12.3c-3.5-5-11.9-4.5-14.9,0.9c-0.1,0.2,0.5,0.8,0.8,1.2c4.4,6.9,8.8,13.8,13.4,21c-3.2,2.4-6.1,4.6-9.1,6.8
		c-1.6-1-3.8-1.7-4.7-3.2C856.3,683.5,846.2,668.3,836,653z M868.4,662.5c0.7-2.2,2.6-5,1.9-6.4c-4.4-8.4-7.6-14.3-19.1-6.1
		c0.5,0.7,1.1,1.5,1.7,2.3c2.9,4.7,5.8,9.3,9,14.3C864.3,665,866.3,663.8,868.4,662.5z"/>
	<path class="st20" d="M707.4,736.8c0.4-1.4,0.4-3.3,1.3-4c8.3-6.9,16.8-13.5,25.7-20.6c1.8,2.6,3.3,4.8,5.4,7.8
		c-1.3,1-2.5,1.8-3.7,2.7c-3.9,3-7.8,6-11.7,9.1c-0.5,0.4-0.2,1.7-0.3,2.7c4.3,6.7,8.6,13.4,13.3,20.5c3.7-3.2,7.1-6.1,10.9-9.4
		c1.7,2.6,3.2,4.9,5.2,7.9c-3.3,3.1-6.7,6.2-10.5,9.8c4.7,7,9.4,14,14.3,21.3c5.3-5,10.3-9.8,15.5-14.8c1.6,2.4,3.1,4.6,5,7.5
		c-8.8,8.5-17.5,16.9-26.2,25.3C736.8,780.8,722.1,758.8,707.4,736.8z"/>
	<path class="st20" d="M883.2,630.9c-0.3-0.9-0.7-1.8-1.3-3.2c9.4-3.8,18.6-8.1,28.1-11.3c7.3-2.5,13.7,0.8,17.8,7.4
		c4.3,7.1,8.6,14.2,12.8,21.4c3.7,6.3,3,11.8-3.1,16.1c-6.1,4.3-12.7,7.8-19.1,11.7c-0.8,0.4-1.7,0.7-2.5,1.1l0.1,0
		c-0.7,0.4-1.4,0.7-2,1.1l0.1,0c-1.5-1.3-3.4-2.4-4.4-4C900.7,657.7,892,644.3,883.2,630.9z M900.1,630.2
		c6.8,11,13.7,22.1,20.7,33.4c2.4-1.5,4.2-2.6,6-3.7c3.5-1.9,4-4.7,2-8c-4.8-8-9.7-15.9-14.6-23.8c-2.4-3.8-5.7-4.8-9.9-3.1
		c-1.8,0.8-3.6,1.6-5.8,2.5C899.2,628.6,899.7,629.4,900.1,630.2z"/>
	<path class="st20" d="M764.1,704.5c0.7,2.5,1,5.2,2.3,7.3c6.4,10.1,13.1,20,19.7,30c6,9,8.3,9.2,16,1.5c4.3-2.9,3.7-6.5,1.6-10.5
		c1.5-1.7,3.1-3.3,4.7-5c6.1,7.6,5.6,16.4-1.3,22.4c-4.2,3.7-8.7,7.3-13,10.9c-0.4,0.3-0.8,0.5-1.1,0.8l0.1,0
		c-7.5,0.3-12.8-3.1-16.8-9.5c-6.6-10.5-13.5-20.9-20.6-31.2c-3.3-4.9-5.2-10-4.8-15.9c2.3-3.3,4.3-6.8,7-9.7c2-2.1,4.8-3.5,7.3-5.1
		c8.9-5.9,15.6-4.6,22,4.6c-1,0.9-2.1,1.9-3.2,2.8c-1.2,0-2.6,0.3-3.5-0.2C774,693.7,766.1,696.9,764.1,704.5z"/>
	<path class="st21" d="M933.9,612.7c5.5-12.8,24.8-16.8,32.7-6.5c-1.3,0.6-2.5,1.3-3.8,1.9c-1.7-0.6-3.4-1-5-1.7
		c-4.4-2-9.1,0.1-10,4.7c1.8,1.7,3.3,4,5.4,4.8c6.1,2.4,12.5,4.2,18.8,6.1c5.2,1.6,8.6,5.2,9.7,10.3c1.1,5.1-2.4,8.3-6.1,11
		c-0.3,0.3-0.7,0.5-1,0.8l-0.1,0.1c-0.5,0.3-1,0.7-1.6,1l0,0c-1.3,0.7-2.7,1.3-4.1,2l0,0c-1.3,0.2-2.5,0.3-3.8,0.7
		c-5.6,1.5-10.7,1.2-14.6-3.7c1.5-1.5,3-3,4.7-4.7c3.6,3.6,7,4.2,10.7,1.7c1-1.5,3-3.3,2.7-4.4c-0.5-1.7-2.4-3.7-4.1-4.3
		c-6.2-2.3-12.5-4.2-18.9-5.9C938.7,624.3,934.9,619.8,933.9,612.7z"/>
	<path class="st14" d="M665.3,774c12.9,19,25.8,37.9,38.8,56.9c3.4,4.9,6.7,9.9,10,14.9c-0.9,0.7-1.7,1.5-3.1,2.6
		c-16.1-23.7-32.1-47.2-48.3-71C663.5,776.3,664.4,775.1,665.3,774z"/>
	<path class="st14" d="M707.4,736.8c14.7,22,29.5,43.9,44.2,65.9c-0.8,0.8-1.5,1.6-2.8,3c-14.8-22-29.4-43.7-44.2-65.7
		C705.5,738.9,706.4,737.9,707.4,736.8z"/>
	<path class="st15" d="M750.9,705.4c-0.5,5.9,1.4,11,4.8,15.9c7,10.3,14,20.7,20.6,31.2c4,6.4,9.3,9.8,16.8,9.5
		c-5.7,4.5-13,3.2-17.9-3.5c-3.3-4.5-6.3-9.4-9.4-14.1c-4.7-7-9.5-14-14-21.2C748.2,717.5,747.3,711.5,750.9,705.4z"/>
	<path class="st15" d="M794.5,677.3c-0.3,5.2,1.4,9.7,4.4,14c6.2,9,12.3,18.2,18.2,27.5c4.5,7.1,10.4,10.6,18.9,8.1
		c-6.7,5.8-14.8,5.3-19.8-1.8c-7.5-10.8-14.8-21.7-21.8-32.8C791.4,687.5,791,682.2,794.5,677.3z"/>
	<path class="st14" d="M836,653c10.2,15.2,20.3,30.5,30.7,45.7c1,1.5,3.1,2.1,4.7,3.2c-1.7,1.2-3.5,2.4-5.6,3.9
		c-11.3-17-22.2-33.5-33.4-50.4C833.9,654.4,834.9,653.7,836,653z"/>
	<path class="st15" d="M883.2,630.9c8.8,13.4,17.5,26.8,26.4,40.2c1.1,1.6,2.9,2.7,4.4,4c-1.5,1.1-3,2.3-4.9,3.7
		c-10-15.5-19.7-30.5-29.5-45.8C881.1,632.2,882.2,631.5,883.2,630.9z"/>
	<path class="st14" d="M933.9,612.7c1,7.1,4.7,11.7,11.8,13.7c6.3,1.8,12.7,3.7,18.9,5.9c1.7,0.6,3.6,2.6,4.1,4.3
		c0.3,1.1-1.7,2.9-2.7,4.4c-0.3-3.6-2.9-5-5.9-5.8c-6.4-1.8-12.8-3.4-19.1-5.5C932.8,626.9,929.6,619.1,933.9,612.7z"/>
	<path class="st15" d="M705.7,800.1c3.8-4.3,7.2-4.2,10.8,0.8c5.4,7.6,10.5,15.4,15.7,23.1c-0.6,1-1.2,2-2.2,3.7
		c-5.7-8.3-10.5-15.3-15.4-22.4C712.4,802.2,709.8,799.8,705.7,800.1z"/>
	<path class="st15" d="M867.1,674c-0.3-0.4-0.9-1-0.8-1.2c3-5.4,11.3-5.9,14.9-0.9c2.8,4,5.4,8.3,8.3,12.3c0.9,1.2,2.3,2.1,3.4,3.1
		c-1.3,1.2-2.5,2.4-4.2,4c-3.4-5.1-6.5-9.8-9.6-14.4C875.3,671.5,873,670.9,867.1,674z"/>
	<path class="st15" d="M764.1,704.5c2-7.7,9.9-10.8,16.5-6.7c0.8,0.5,2.3,0.2,3.5,0.2c-1.1,1.9-2.1,3.8-3.8,6.8
		C773.8,696,769.1,701.8,764.1,704.5z"/>
	<path class="st15" d="M950.6,643.9c3.9,4.9,9,5.2,14.6,3.7c1.2-0.3,2.5-0.5,3.8-0.7c-4.1,1.6-8.1,4.2-12.3,4.6
		c-3.2,0.3-6.6-2.3-10-3.6c0.1-0.6,0.2-1.2,0.3-1.8C948.2,645.3,949.4,644.6,950.6,643.9z"/>
	<path class="st15" d="M947.9,611c0.9-4.5,5.6-6.7,10-4.7c1.6,0.7,3.3,1.2,5,1.7c0.3,0.7,0.6,1.4,1.1,2.4c-1.9,0.7-3.6,1.3-5.3,2
		c0-0.5-0.1-1-0.1-1.4C955,611,951.5,611,947.9,611z"/>
	<path class="st15" d="M724.1,734.5c0.1-0.9-0.2-2.2,0.3-2.7c3.8-3.1,7.8-6.1,11.7-9.1c-0.2,1,0,2.5-0.6,3
		C731.8,728.8,727.9,731.6,724.1,734.5z"/>
	<path class="st14" d="M803.7,732.9c2.1,3.9,2.7,7.5-1.6,10.5c-0.3-2.6-0.5-5.2-0.9-8.2C801.7,734.6,802.7,733.7,803.7,732.9z"/>
	<path class="st15" d="M969,647c1.3-0.7,2.7-1.3,4.1-2C971.7,645.6,970.3,646.3,969,647z"/>
	<path class="st15" d="M916,674c0.8-0.4,1.7-0.7,2.5-1.1C917.7,673.3,916.8,673.7,916,674z"/>
	<path class="st15" d="M914,675.1c0.7-0.4,1.4-0.7,2-1.1C915.4,674.4,914.7,674.7,914,675.1z"/>
	<path class="st15" d="M792.9,762c0.4-0.3,0.8-0.5,1.1-0.8C793.7,761.5,793.3,761.7,792.9,762z"/>
	<path class="st15" d="M973,645c0.5-0.3,1-0.7,1.6-1C974,644.3,973.5,644.7,973,645z"/>
	<path class="st15" d="M974.6,644c0.3-0.3,0.7-0.5,1-0.8C975.3,643.4,975,643.7,974.6,644z"/>
	<path class="st22" d="M1157.5,461.3c17.1-2.4,33.6-4.7,51-7.1c-5.9,22.5-11.6,44.2-17.5,66.3c11.4-0.8,22.4-1.5,33.8-2.3
		c0.6,4-2,3.8-4.4,3.9c-14.3,0.3-28.6,0.5-42.9,1.1c-12.1,0.5-24.1,1.6-36.8,2.5C1146.4,504.1,1151.9,482.9,1157.5,461.3z"/>
	<path class="st2" d="M739.7,659.8c-2.2,1.2-4,2.3-6.7,3.8c1.3-5.3,2.4-9.4,3.5-13.7c1.7-0.7,3.4-1.4,6.1-2.6
		C741.5,652.1,740.6,655.8,739.7,659.8z"/>
	<path class="st2" d="M1246.4,298.7c0.7-0.3,1.3-0.5,2-0.8c0.2,0.3,0.4,0.7,0.6,1c-0.7,0.5-1.4,0.9-2.1,1.4
		C1246.8,299.7,1246.6,299.2,1246.4,298.7z"/>
	<path class="st2" d="M557,512.4c-1.1,3.8-2.1,7.7-3.2,11.5c-0.5-0.2-1-0.3-1.4-0.4c1.3-3.9,2.5-7.8,3.8-11.7
		C556.5,512,556.7,512.2,557,512.4z"/>
	<path class="st23" d="M700.2,790.7c-1.1,1.2-2.2,2.4-3.8,4.2c-5.2-7.8-10.1-15.3-15.1-22.8c0.3-0.7,0.5-1.4,0.8-2.1l0,0
		c2.8,0.2,6.6-0.7,8.1,0.8C695.6,776.2,701,782,700.2,790.7z"/>
	<path class="st15" d="M700.2,790.7c0.9-8.7-4.6-14.5-10-19.8c-1.5-1.5-5.3-0.6-8.1-0.8c4.5-6.7,8.8-6.9,13.4-0.7
		c2.1,2.8,4.1,5.7,5.8,8.7C703.5,782.4,704.5,786.8,700.2,790.7z"/>
	<path class="st15" d="M682,770c-0.3,0.7-0.5,1.4-0.8,2.1C681.5,771.4,681.8,770.7,682,770z"/>
	<path class="st23" d="M838.2,714.9c-3.5,2.3-6.3,0.6-8.1-2c-7.3-10.6-14.4-21.4-21.4-32.2c-0.7-1.1-0.5-2.8-0.8-4.2
		c5-1.8,8.5,0,11.3,4.4c5.4,8.5,11.3,16.8,16.5,25.4C837.3,708.7,837.4,712,838.2,714.9z"/>
	<path class="st15" d="M838.2,714.9c-0.8-2.9-1-6.3-2.5-8.8c-5.3-8.6-11.1-16.9-16.5-25.4c-2.8-4.4-6.2-6.2-11.3-4.4
		c1.4-1.8,2.6-4.9,4.2-5.1c2.4-0.3,6.1,0.7,7.4,2.4c7.4,10.4,14.4,21.1,21.2,31.9C843,709.2,842.2,712.7,838.2,714.9z"/>
	<path class="st23" d="M868.4,662.5c-2.1,1.3-4.1,2.5-6.6,4c-3.1-5-6-9.6-9-14.3c3.3,0,7.4-1.2,9.5,0.4
		C865.2,654.9,866.4,659.2,868.4,662.5z"/>
	<path class="st15" d="M868.4,662.5c-2-3.4-3.2-7.6-6.1-9.8c-2.1-1.6-6.3-0.4-9.5-0.4c-0.6-0.8-1.1-1.5-1.7-2.3
		c11.5-8.3,14.7-2.3,19.1,6.1C871,657.5,869.1,660.4,868.4,662.5z"/>
	<path class="st23" d="M926.9,659.9c-1.8,1.1-3.6,2.2-6,3.7c-7-11.3-13.8-22.3-20.7-33.4c7-2.6,9-1.9,12.8,4.2
		c4,6.5,8.1,13,11.9,19.5C925.9,655.7,926.2,657.9,926.9,659.9z"/>
	<path class="st15" d="M926.9,659.9c-0.7-2-1-4.2-2-6c-3.8-6.6-7.9-13.1-11.9-19.5c-3.8-6.1-5.8-6.8-12.8-4.2
		c-0.5-0.8-0.9-1.6-1.5-2.7c2.1-0.9,3.9-1.8,5.8-2.5c4.2-1.7,7.5-0.7,9.9,3.1c4.9,7.9,9.8,15.9,14.6,23.8
		C930.8,655.2,930.3,658,926.9,659.9z"/>
</g>
<path d="M1190.6,439.6"/>
<polygon class="st1" points="1166.5,426.5 1139.1,532 1131.9,533 1158.9,427.8 "/>
<path class="st15" d="M1131.9,533c0,0,50.8-7.3,93.6-5.3c1.8,0.1,3.6,0.2,5.3,0.3l1.2-4.8c0,0-27.4-5.4-98.8,3.8L1131.9,533z"/>
<polygon class="st1" points="1227.5,511.4 1223.2,527.6 1230.9,528 1235,510.9 "/>
<polygon class="st1" points="1233.1,518.3 1191.1,520.5 1208,456.1 1157.5,461.3 1159.3,454.2 1217.5,446.8 1199.3,513.4 
	1235,510.9 "/>
</svg>
