<?xml version="1.0" encoding="utf-8"?>
<!-- Generator: Adobe Illustrator 24.0.1, SVG Export Plug-In . SVG Version: 6.00 Build 0)  -->
<svg version="1.1" id="Слой_1" xmlns="http://www.w3.org/2000/svg" xmlns:xlink="http://www.w3.org/1999/xlink" x="0px" y="0px"
	 viewBox="0 0 1920 1080" style="enable-background:new 0 0 1920 1080;" xml:space="preserve">
<style type="text/css">
	.st0{fill:#FEFEFE;}
	.st1{fill:#D7A82F;}
	.st2{fill:#F7F6F7;}
	.st3{fill:#070909;}
	.st4{fill:#FBFBFB;}
	.st5{fill:#F7F7F7;}
	.st6{fill:#07090A;}
	.st7{fill:#080A0B;}
	.st8{fill:#080A0A;}
	.st9{fill:#2F2D74;}
	.st10{fill:#090B0C;}
	.st11{fill:#0A0C0D;}
	.st12{fill:#D4A52B;}
	.st13{fill:#D2A42F;}
	.st14{fill:#D1A432;}
	.st15{fill:#2E2C74;}
	.st16{fill:#060809;}
	.st17{fill:#D5A529;}
	.st18{fill:#FCFBFB;}
	.st19{fill:#FBFBFA;}
	.st20{fill:#F9F9F9;}
	.st21{fill:#FDFBF8;}
	.st22{fill:#333175;}
</style>
<g>
	<path class="st0" d="M54,1143c0-401.67,0-803.33,0-1205c604.67,0,1209.33,0,1814,0c0,401.67,0,803.33,0,1205
		C1263.33,1143,658.67,1143,54,1143z M620.52,746.39c0.23,0.27,0.46,0.54,0.69,0.81c-7.2,8.29-14.88,16.21-21.52,24.92
		c-24.65,32.37-34.43,68.36-24.42,108.5c7.37,29.57,23.39,54.38,44.9,75.46c11.97,11.73,25.14,22.32,38.31,32.72
		c11.2,8.85,22.89,17.17,34.92,24.85c11.43,7.29,24.52,10.65,37.97,13.31c0.29-1.16,0.48-1.95,0.69-2.73
		c5.16-19.61,8.95-39.7,15.72-58.73c24.04-67.52,66.56-122.43,119.44-169.77c56.08-50.21,119.92-87.85,189.97-114.96
		c75.71-29.3,153.82-45.01,235.4-39.8c27.5,1.75,54.53,6.36,80.83,14.69c3.62,1.15,6.91,3.71,10.01,6.07
		c8.32,6.35,16.02,13.62,24.76,19.28c13.89,8.99,29.23,13.29,46.09,11.02c28.31-3.81,47.32-29.69,41.81-57.67
		c-4.16-21.14-17.66-35.27-35.48-45.99c-1.95-1.18-3.73-2.68-5.47-4.17c-6.55-5.62-12.82-11.59-19.67-16.8
		c-2.84-2.16-4.6-4.31-5.62-7.66c-9.84-32.13-19.82-64.22-29.74-96.33c-5.64-18.26-11.27-36.52-16.96-54.99
		c37.67-48.62,75.27-97.15,113.94-147.06c-15.83,0-30.13,0-45.58,0c6.15-7.98,11.36-14.75,17.19-22.32
		c-28.56-0.64-56.04-1.25-82.53-1.84c-0.76-14.68-0.81-28.52-2.37-42.18c-1.86-16.33-7.21-31.73-19.67-43.19
		c-5.51-5.07-13.12-7.79-18.95-12.58c-5.97-4.9-10.25-11.97-16.47-16.43c-15.49-11.13-33.45-12.09-51.28-8.26
		c-51.82,11.12-88.79,41.38-111.46,89.12c-5.48,11.54-8.09,23.98-8.68,36.72c-0.67,14.4,3.34,27.2,14.58,37.01
		c-4.98,3.08-9.6,5.94-14.31,8.84c-7.67-9.1-17.33-10.95-27.83-7.76c-15.27,4.64-30.43,9.65-45.44,15.07
		c-13.27,4.79-26.26,10.35-39.35,15.56c-6.95-7.63-15.48-11.31-25.34-11.94c-9.5-0.6-18.81,1.1-27.17,5.33
		c-11.65,5.89-22.76,12.83-34.64,19.62c-8-6.7-18.56-8.78-29.52-6.13c-10.59,2.55-21.24,5.7-31.11,10.22
		c-10.66,4.88-20.44,11.67-30.76,17.72c-8.91-6.35-15.01-7.9-24.8-5.72c-3.39,0.76-6.93,1.58-9.95,3.21
		c-17.83,9.66-35.7,19.27-53.19,29.52c-10.28,6.03-19.88,13.22-29.85,19.94c-7.42-9.89-17.44-13.65-28.82-11.49
		c-7.86,1.49-15.34,5.16-22.87,8.16c-3.14,1.25-5.97,3.29-9.07,5.05c-5.37-10.95-11.44-20.94-21.4-27.2
		c-8.63-5.42-15.94-11.92-23.26-18.95c-16.98-16.33-37.66-17.92-59.16-10.97c-24.52,7.92-44.75,23-62.24,41.34
		c-52.16,54.67-85.05,119.07-95.2,194.33c-2.07,15.37-1.41,31,4.42,45.81c5,12.71,12.75,23.09,26.2,27.75
		c3.24,1.12,5.27,2.7,7.04,5.56c9.23,14.96,23.72,21.61,40.31,18.52c4.13-0.77,8.11-2.35,12.87-3.77
		c-10.35,40.13-20.54,79.66-31.01,120.25c13.38-7.68,25.75-14.77,38.11-21.87c0.28,0.32,0.56,0.63,0.84,0.95
		c-3.51,14.15-7.02,28.29-10.87,43.83c14.33-8.37,27.21-15.91,40.11-23.42C576.57,771.96,598.55,759.18,620.52,746.39z"/>
	<path class="st1" d="M620.52,746.39c-21.97,12.79-43.95,25.57-65.92,38.37c-12.9,7.51-25.78,15.05-40.11,23.42
		c3.85-15.54,7.36-29.68,10.87-43.83c0.08-0.37,0.17-0.74,0.25-1.1c-0.36,0.05-0.72,0.1-1.08,0.15
		c-12.36,7.09-24.73,14.19-38.11,21.87c10.47-40.59,20.66-80.12,31.01-120.25c-4.76,1.42-8.74,3-12.87,3.77
		c-16.6,3.09-31.08-3.56-40.31-18.52c-1.77-2.86-3.8-4.44-7.04-5.56c-13.45-4.66-21.2-15.04-26.2-27.75
		c-5.83-14.81-6.49-30.44-4.42-45.81c10.16-75.26,43.05-139.66,95.2-194.33c17.5-18.34,37.72-33.42,62.24-41.34
		c21.51-6.95,42.18-5.36,59.16,10.97c7.31,7.03,14.63,13.53,23.26,18.95c9.96,6.26,16.03,16.25,21.4,27.2
		c3.1-1.76,5.93-3.8,9.07-5.05c7.53-3,15.01-6.68,22.87-8.16c11.38-2.15,21.4,1.61,28.82,11.49c9.98-6.72,19.57-13.91,29.85-19.94
		c17.49-10.25,35.36-19.86,53.19-29.52c3.02-1.63,6.55-2.46,9.95-3.21c9.79-2.18,15.89-0.64,24.8,5.72
		c10.32-6.05,20.11-12.83,30.76-17.72c9.87-4.52,20.52-7.67,31.11-10.22c10.96-2.64,21.52-0.57,29.52,6.13
		c11.88-6.79,23-13.73,34.64-19.62c8.36-4.23,17.67-5.93,27.17-5.33c9.86,0.63,18.39,4.31,25.34,11.94
		c13.09-5.21,26.08-10.77,39.35-15.56c15.01-5.42,30.18-10.43,45.44-15.07c10.49-3.19,20.16-1.33,27.83,7.76
		c4.71-2.91,9.33-5.76,14.31-8.84c-11.24-9.81-15.25-22.62-14.58-37.01c0.59-12.74,3.2-25.18,8.68-36.72
		c22.67-47.74,59.64-78.01,111.46-89.12c17.83-3.82,35.79-2.86,51.28,8.26c6.21,4.46,10.5,11.53,16.47,16.43
		c5.83,4.79,13.44,7.51,18.95,12.58c12.46,11.46,17.81,26.86,19.67,43.19c1.56,13.67,1.6,27.5,2.37,42.18
		c26.49,0.59,53.97,1.21,82.53,1.84c-5.83,7.57-11.05,14.34-17.19,22.32c15.45,0,29.75,0,45.58,0
		c-38.67,49.91-76.27,98.44-113.94,147.06c5.7,18.47,11.32,36.74,16.96,54.99c9.93,32.11,19.9,64.2,29.74,96.33
		c1.03,3.35,2.78,5.49,5.62,7.66c6.85,5.21,13.12,11.18,19.67,16.8c1.74,1.49,3.52,3,5.47,4.17c17.83,10.72,31.32,24.85,35.48,45.99
		c5.51,27.98-13.5,53.86-41.81,57.67c-16.86,2.27-32.2-2.02-46.09-11.02c-8.75-5.66-16.44-12.93-24.76-19.28
		c-3.1-2.36-6.39-4.92-10.01-6.07c-26.3-8.33-53.33-12.94-80.83-14.69c-81.58-5.2-159.69,10.5-235.4,39.8
		c-70.05,27.11-133.89,64.75-189.97,114.96c-52.88,47.34-95.4,102.25-119.44,169.77c-6.78,19.03-10.56,39.12-15.72,58.73
		c-0.21,0.78-0.39,1.57-0.69,2.73c-13.45-2.66-26.54-6.01-37.97-13.31c-12.03-7.68-23.72-16-34.92-24.85
		c-13.18-10.41-26.34-20.99-38.31-32.72c-21.5-21.08-37.53-45.89-44.9-75.46c-10-40.14-0.22-76.13,24.42-108.5
		c6.64-8.72,14.32-16.64,21.52-24.92c0.23-0.3,0.46-0.6,1.07-1.41C621.28,746.13,620.9,746.26,620.52,746.39z M1389.13,655.88
		l-0.03-0.08c0.31,0.69,0.44,1.63,0.97,2.03c8.04,6.17,15.76,12.84,24.29,18.23c10.9,6.87,23.07,9.99,36.18,9.02
		c23.4-1.73,40.39-20.32,39.61-43.65c-0.63-18.8-17.25-41.52-35.47-48.48c-0.25-0.1-0.63,0.11-0.94,0.18
		c-7.51-10.2-17.14-17.94-28.05-24.19c-16.74-54.12-33.47-108.24-50.16-162.2c35.77-46.16,71.2-91.9,107.13-138.27
		c-15.4-0.5-29.79-0.96-44.18-1.43c5.17-6.94,10.33-13.88,16.41-22.04c-7.19,0-12.94,0.1-18.69-0.02
		c-19.55-0.42-39.11-0.92-58.66-1.38c0.31-3.98,0.67-7.95,0.91-11.94c1.12-18.89,0.59-37.64-6.38-55.55
		c-5.75-14.78-15.22-26.05-31.13-30.63c-4.81-7.24-10.03-14.03-17.73-18.55c-14.74-8.65-30.63-8.81-46.51-5.34
		c-43.84,9.6-76.22,35.16-98.67,73.49c-9.5,16.22-14.6,33.98-13.12,53c1.4,18.01,11,26.98,28.9,27.95c0.04,0.37,0.09,0.73,0.13,1.1
		c-14.84,2.56-26.87,10.73-38.49,19.71c-6.04-12.15-11.71-14.99-24.65-11.67c-8.68,2.22-17.32,4.79-25.7,7.93
		c-19.74,7.37-39.33,15.18-58.98,22.81c4.81,2.28,9.48,3.35,14.13,4.49c8.32,2.03,11.11,5.98,10.3,14.59
		c-0.12,1.32-0.44,2.62-0.66,3.93c-5.92-7.69-13.49-12.14-23.43-11.92c-5.21-16.63-14.6-24.06-31.58-22.73
		c-8.24,0.65-16.91,2.9-24.22,6.68c-11.52,5.95-22.06,13.8-33.19,20.96c-4.76-7.82-13.02-10.28-22.56-9.91
		c-14.69,0.58-27.93,5.97-40.41,13.09c-10.14,5.78-19.69,12.6-29.5,18.95c-5.59-9.15-11.54-11.64-22.5-9
		c-2.73,0.66-5.43,1.58-8.03,2.65c-23.66,9.8-44.86,23.87-65.97,38.08c-5.55,3.74-10.99,7.65-16.48,11.48
		c6.01,1.14,11.6,1.11,17.19,1.14c5.65,0.03,7.83,1.61,7.62,7.31c-0.22,5.88-1.68,11.71-2.59,17.56
		c-6.42-12.09-13.8-16.18-25.94-14.37c-2.91-18.35-14.84-26.93-32.12-21.79c-8.28,2.47-15.87,7.28-23.71,11.15
		c-2.77,1.37-5.37,3.1-8.05,4.66c-3.71-12.23-10.1-22.88-20.15-30.78c-4.21-3.31-9.69-5.01-14.6-7.45
		c-11.64-18.89-28.18-28.24-50.64-25.65c-12.45,1.44-23.68,6.44-34.37,12.75c-22.53,13.3-41.35,30.9-57.29,51.42
		c-39.61,50.98-67.13,107.31-73.88,172.39c-1.46,14.03-0.43,27.99,5.42,41.11c5.46,12.23,13.82,21.12,28.04,22.62
		c6.88,19.33,25.31,27.89,43.99,19.87c6.31-2.71,11.96-6.95,17.91-10.5c-7.43,29.09-14.86,58.19-22.3,87.28
		c-2.86,11.18-5.74,22.35-8.8,34.27c13.6-7.78,26.41-15.11,39.21-22.44c-3.67,14.89-7.34,29.78-11.08,44.94
		c0.84-0.26,1.19-0.3,1.47-0.46c29.11-17.02,58.22-34.03,87.26-51.17c1.49-0.88,2.82-2.81,3.29-4.51
		c3.17-11.52,6.12-23.1,9.06-34.68c0.32-1.28,0.08-2.7,0.09-4.06c5.67-3.06,11.34-6.12,17-9.17c-1.18,5.32-2.26,10.66-3.55,15.94
		c-2.2,8.96-4.53,17.88-7.07,27.82c6.8-3.7,12.58-6.92,18.42-10.01c6.71-3.54,13.48-6.95,20.23-10.42c-1.59,1.56-3.06,3.29-4.8,4.67
		c-22.57,17.95-44.66,36.46-62.09,59.69c-25.3,33.72-33.83,70.86-20.07,111.48c12.84,37.89,38.42,65.99,70.74,88.52
		c1.35,0.94,2.39,2.31,3.57,3.49c0.88,0.35,1.76,0.69,2.64,1.04l0,0c0.42,0.85,0.61,2.04,1.29,2.51
		c12.09,8.5,23.86,17.57,36.53,25.12c7.81,4.65,17.01,6.96,25.99,10.47c0.61-2.63,0.94-3.89,1.19-5.17
		c5.85-30.57,15.78-59.76,29.62-87.63c30.26-60.93,73.64-111.26,126.49-153.33c102.03-81.21,217.7-129.19,348.25-139.2
		c47.66-3.66,94.79,0.27,140.89,13.71c1.51,0.44,3.17,0.37,4.76,0.54l-0.08-0.05c0.53,0.37,1.05,0.74,1.58,1.11
		c2.97,1.95,5.94,3.9,8.91,5.85C1388.04,655.2,1388.59,655.54,1389.13,655.88z"/>
	<path class="st2" d="M1387.49,654.86c-2.97-1.95-5.94-3.9-8.91-5.85c-0.53-0.37-1.05-0.74-1.58-1.1c0,0,0.08,0.05,0.08,0.05
		c-6.42-5.75-12.79-11.56-19.28-17.23c-1.69-1.47-3.61-2.95-5.69-3.64c-22.81-7.59-46.27-12.35-70.13-14.88
		c-52.6-5.57-104.7-1.64-156.34,9.26c-57.23,12.08-111.75,31.82-163.61,58.79c-67.71,35.22-127.97,80.1-177.45,138.66
		c-36.26,42.92-63.9,90.65-79.07,145.08c-2.84,10.19-4.98,20.57-7.5,31.09c-0.91-0.14-1.76-0.11-2.49-0.4
		c-11.16-4.56-22.31-9.17-33.46-13.76c0,0,0,0,0,0c-0.88-0.34-1.76-0.69-2.64-1.04c-1.18-1.17-2.23-2.55-3.57-3.49
		c-32.32-22.53-57.91-50.63-70.74-88.52c-13.76-40.62-5.23-77.75,20.07-111.48c17.43-23.23,39.52-41.74,62.09-59.69
		c1.74-1.38,3.21-3.11,4.8-4.67c0,0-0.06,0.02-0.06,0.02c0.62-0.47,1.24-0.94,1.85-1.41c16.1-10.86,32.21-21.72,48.31-32.57
		c7.97-4.79,15.95-9.58,23.92-14.37c4.62-2.57,9.16-5.29,13.87-7.69c25.32-12.9,50.69-25.71,76.04-38.56c4-1.81,8-3.63,12-5.44
		c28.7-11.06,57.39-22.13,86.09-33.19c3.92-1.32,7.85-2.64,11.77-3.96c27.72-7.8,55.45-15.6,83.17-23.4
		c7.34-1.61,14.68-3.22,22.01-4.83c13.68-2.54,27.33-5.26,41.04-7.58c13.23-2.24,26.54-4.06,39.81-6.06
		c13.23-1.19,26.44-2.86,39.69-3.47c19.73-0.9,39.49-1.05,59.24-1.52c18.83,1.25,37.67,2.49,56.5,3.74
		c9.11,1.16,18.23,2.32,28.09,3.58c-1.91-6.18-3.52-11.39-5.13-16.61c-5.73-20.54-11.46-41.09-17.19-61.63
		c-0.28,0.04-0.57,0.09-0.85,0.13c-4.31,16.61-8.62,33.22-12.98,50.04c-3.28,0.26-6.23,0.5-9.18,0.74
		c-11.72,0.95-23.44,1.9-35.16,2.85c-11.63,0.83-23.26,1.65-35.71,2.53c6.83-24.86,13.47-48.62,19.86-72.44
		c8.31-30.93,16.47-61.9,24.58-92.88c3.02-11.54,5.73-23.17,8.58-34.76c2.56-10.13,5.11-20.26,7.67-30.38l-0.02,0.04
		c0.29-0.38,0.58-0.77,0.88-1.15c0.35-1.11,0.77-2.2,1.05-3.33c4.92-19.46,10.21-38.85,14.53-58.44c1.62-7.35,1.89-15.27,1.19-22.79
		c-1.13-12.14-8.29-15.21-18.76-8.96c-10.86,6.48-17.64,22-15.22,34.53c0.98,5.11,3.17,9.03,8.54,10.55
		c1.04,0.29,1.95,1.04,2.91,1.57c-9.92,18.69-33.69,34.57-61.23,41.09c-17.9-0.98-27.5-9.94-28.9-27.95
		c-1.48-19.02,3.63-36.78,13.12-53c22.44-38.34,54.82-63.9,98.67-73.49c15.88-3.47,31.77-3.31,46.51,5.34
		c7.7,4.52,12.92,11.32,17.73,18.55c6.66,13.86,9.44,28.61,9.9,43.86c0.8,26.29-3.49,51.97-9.43,77.44
		c-1.47,6.31-3.06,12.6-4.6,18.9c0.38,0.17,0.76,0.34,1.14,0.51c10.62-14.14,21.24-28.28,31.7-42.19c2.93-0.15,5.42-0.27,7.9-0.4
		c19.55,0.47,39.11,0.97,58.66,1.38c5.75,0.12,11.5,0.02,18.69,0.02c-6.08,8.16-11.25,15.1-16.41,22.04
		c-0.78,0.85-1.64,1.64-2.35,2.55c-23.44,30.26-46.87,60.53-70.3,90.79c-6.09,7.87-12.18,15.73-18.21,23.5
		c18.11,58.62,36.1,116.81,54.11,175.1c8.07,3.35,16.01,6.65,23.95,9.95c10.91,6.25,20.54,13.99,28.05,24.19
		c1.66,3.24,3.54,6.39,4.95,9.74c9.23,21.98,0.88,45.04-19.93,54.87c-14.62,6.9-29.29,5.84-43.92-0.17
		c-1.84-0.76-3.82-1.18-5.73-1.75c0,0,0.03,0.08,0.03,0.08C1388.59,655.54,1388.04,655.2,1387.49,654.86z M1325.62,544.72
		c-1.64-0.27-2.41-0.39-3.16-0.52c-37.33-6.51-74.93-9.25-112.82-8.7c-39.21,0.57-78.12,4.3-116.74,10.79
		c-82.9,13.92-162.71,38.36-239.73,71.89c-65.05,28.31-127.07,62-183.14,105.85c-22.21,17.37-43.62,35.73-60.33,58.72
		c-26.77,36.85-31.59,76.3-11.57,117.62c16.78,34.63,43.13,60.44,76.85,78.73c5.46,2.96,11.41,5.05,16.84,7.41
		c4.11-14.42,7.45-28.17,11.94-41.54c22.63-67.38,62.88-123.22,113.85-171.81c47.89-45.66,102.37-81.85,162.17-109.89
		c86.46-40.54,176.9-63.7,273.12-60.46c34.79,1.17,68.86,6.67,102.01,17.4c2.83,0.92,5.63,2.8,7.75,4.93
		c12.47,12.53,25.82,23.64,43.33,28.37c17.1,4.62,34.87-1.3,43.61-14.31c8.58-12.78,6.96-30.05-4.21-44.62
		c-7.6-9.92-17.61-16.62-28.93-21.51c-6.84-2.96-13.77-5.72-20.72-8.59c-18.78-60.8-37.52-121.43-56.28-182.14
		c33.49-43.25,66.81-86.27,100.13-129.29c-0.28-0.45-0.57-0.9-0.85-1.35c-21.77,0-43.54,0-65.66,0
		c-17.25,22.98-34.81,46.37-52.37,69.75c-0.61-1.12-0.51-1.76-0.36-2.4c6.73-28.64,14.2-57.12,19.96-85.95
		c4.28-21.42,5.08-43.29,0.7-65.02c-4.8-23.79-17.88-37.93-39.23-40.57c-7.61-0.94-15.77-0.43-23.29,1.23
		c-43.06,9.5-74.47,34.76-95.66,72.95c-7.44,13.41-11.37,28.08-10.91,43.58c0.5,16.99,11.29,26.28,26.6,22.36
		c18.26-4.67,32.76-15.7,46.13-29.05c-9.64-8.51-9.81-19.07-7.56-30.12c3.03-14.88,11.23-25.45,26.12-29.87
		c8.92-2.65,16.38,1.21,19.71,9.83c1.07,2.76,1.71,5.75,2.07,8.69c1.49,12.28-0.74,24.22-3.83,36.01
		c-20.19,77.04-40.45,154.06-60.69,231.08c-3.53,13.44-7.07,26.88-10.72,40.76c21.59-1.55,42.62-3.06,63.74-4.57
		c6.22-24.01,12.34-47.61,18.83-72.67C1303.64,467.51,1314.53,505.76,1325.62,544.72z"/>
	<path class="st3" d="M662.08,980.93c11.15,4.6,22.29,9.2,33.46,13.76c0.72,0.3,1.58,0.27,2.49,0.4c2.52-10.52,4.66-20.9,7.5-31.09
		c15.17-54.44,42.81-102.16,79.07-145.08c49.47-58.56,109.74-103.44,177.45-138.66c51.86-26.98,106.38-46.71,163.61-58.79
		c51.64-10.9,103.74-14.83,156.34-9.26c23.86,2.53,47.32,7.29,70.13,14.88c2.08,0.69,4,2.17,5.69,3.64
		c6.5,5.66,12.86,11.47,19.28,17.23c-1.59-0.17-3.25-0.1-4.76-0.54c-46.11-13.43-93.23-17.36-140.89-13.71
		c-130.55,10.02-246.22,58-348.25,139.2c-52.85,42.07-96.23,92.4-126.49,153.33c-13.84,27.87-23.76,57.06-29.62,87.63
		c-0.25,1.28-0.58,2.54-1.19,5.17c-8.98-3.52-18.19-5.82-25.99-10.47c-12.67-7.55-24.44-16.62-36.53-25.12
		C662.69,982.96,662.5,981.78,662.08,980.93z"/>
	<path class="st4" d="M684.4,402.91c2.68-1.56,5.28-3.29,8.05-4.66c7.84-3.87,15.43-8.68,23.71-11.15
		c17.27-5.15,29.2,3.43,32.11,21.79c-0.09,8.15,0.46,16.37-0.42,24.43c-1.25,11.41-2.82,22.89-5.55,34.03
		c-7.95,32.45-16.55,64.74-24.89,97.09c-8.12,31.53-16.21,63.07-24.43,94.58c-0.39,1.51-1.7,3.2-3.06,3.98
		c-10.14,5.79-20.4,11.36-30.6,17.03c-5.11,2.85-10.18,5.78-15.26,8.68c-5.67,3.06-11.34,6.12-17.01,9.18
		c-6.95,3.65-13.89,7.31-21.08,11.09c0.09-1.38-0.01-2.56,0.27-3.65c8.21-31.61,16.51-63.19,24.7-94.81
		c7.71-29.77,15.36-59.56,22.92-89.36c1.49-5.86,2.45-11.85,3.72-18.08c-1.66,0-2.21-0.15-2.63,0.04c-0.56,0.25-1.01,0.74-1.5,1.13
		c-8.42,6.8-12.59,16.23-15.3,26.22c-8.24,30.44-16.12,60.97-24.15,91.47c-6.23,23.66-12.48,47.31-18.73,70.96
		c-2.18,8.25-4.38,16.49-6.37,23.98c-11.88,6.92-22.98,13.32-34.01,19.85c-6.04,3.58-11.95,7.39-17.91,11.09
		c-12.81,7.33-25.61,14.65-39.21,22.44c3.06-11.92,5.94-23.1,8.8-34.27c7.44-29.09,14.87-58.18,22.3-87.28
		c0.74-2.66,1.53-5.31,2.22-7.99c5.14-19.92,10.31-39.84,15.35-59.78c1.66-6.59,2.96-13.28,4.43-19.92
		c1.12-3.38,2.44-6.72,3.34-10.16c5.3-20.17,10.6-40.34,15.7-60.57c1.62-6.44,2.63-13.03,3.91-19.55l-0.06,0.1
		c0.41-0.76,0.83-1.52,1.24-2.28c3.23-9.02,4.76-18.23,3-27.79c-1.08-5.87-3.79-8.14-9.84-7.75c-9.25,0.6-16.03,6.41-21.79,12.51
		c-12.02,12.74-20.36,27.93-25.9,44.59c-3.74,11.26-7.52,22.64-7.28,34.6c0.19,9.07,3.89,14.85,15.12,14.06
		c5.29-0.37,10.43-2.96,15.63-4.54c2.56-0.78,5.13-1.56,8.99-2.73c-2.83,9.84-5.33,18.54-7.83,27.24
		c-9.84,23.7-21.76,46.11-41.05,63.68c-10.5,9.56-21.99,17.27-37.08,16.91c-14.22-1.5-22.58-10.39-28.04-22.62
		c-5.85-13.12-6.88-27.07-5.42-41.11c6.75-65.09,34.27-121.41,73.88-172.39c15.94-20.52,34.76-38.11,57.29-51.42
		c10.68-6.31,21.92-11.31,34.37-12.75c22.46-2.6,38.99,6.76,50.64,25.65c9.76,17.34,13.35,36.2,13.31,56.46
		C670.52,414.72,677.46,408.81,684.4,402.91z M653.24,440.45c3.92-21.48,2.84-40.96-4.21-59.93c-3.94-10.61-9.56-20.19-18.95-26.96
		c-14.69-10.6-30.38-9.28-46.12-3.08c-20.02,7.88-36.61,20.96-51.69,35.95c-26.88,26.71-47.1,58.08-63.21,92.17
		c-9.24,19.56-17.58,39.53-22.15,60.78c-2.48,11.54-4.2,23.25-6.03,34.91c-1.95,12.4-0.86,24.66,3.35,36.46
		c2.41,6.77,5.8,13.04,12.16,17.35c10.98,7.42,21.16,3.59,30.93-2.1c12.16-7.08,21.12-17.63,29.16-29.01
		c11.38-16.12,19.7-33.67,25.4-53.36c-3.75,0.75-6.89,1.56-10.08,2c-14.15,1.96-26.16-4.5-25.5-20.59
		c0.34-8.17,1.55-16.43,3.46-24.39c4.97-20.81,14.05-39.84,27.71-56.37c6.63-8.03,14.55-15.15,25.1-17.49
		c12.29-2.73,18.95-1.29,22.01,11.3c1.8,7.4,1.63,15.99-0.16,23.44c-8.53,35.46-17.92,70.71-27.02,106.04
		c-7.95,30.89-15.91,61.79-23.88,92.68c-8.04,31.16-16.11,62.31-24.54,94.92c25.24-14.75,49.4-28.87,73.62-43.03
		c1.16-4.12,2.38-8.17,3.44-12.25c6.92-26.47,13.82-52.95,20.7-79.43c6.82-26.29,13.28-52.69,20.56-78.86
		c2.95-10.61,7.01-21.03,11.79-30.95c2.5-5.19,7.13-9.77,11.76-13.4c5.18-4.06,12.35-0.82,13.13,5.35c0.39,3.05,0.23,6.36-0.52,9.34
		c-5.66,22.44-11.54,44.82-17.33,67.23c-9.33,36.14-18.64,72.29-27.92,108.45c-0.56,2.18-0.77,4.45-1.2,7.06
		c21.38-11.57,42.17-22.72,62.81-34.14c2.78-1.54,6.21-4.11,6.93-6.84c10.36-38.87,20.39-77.82,30.32-116.8
		c7.33-28.76,14.76-57.5,21.41-86.42c2.98-12.95,4.92-26.25,2.71-39.72c-2.49-15.16-11.61-21.57-25.67-15.78
		c-6.56,2.7-13.4,5.42-18.99,9.62c-12.36,9.26-24.03,19.45-35.95,29.3C658.36,435.69,656.32,437.67,653.24,440.45z"/>
	<path class="st5" d="M774.22,423.26c0.92-5.85,2.37-11.68,2.59-17.56c0.22-5.7-1.96-7.28-7.62-7.31
		c-5.59-0.03-11.18-0.01-17.19-1.14c5.49-3.83,10.93-7.74,16.48-11.48c21.11-14.21,42.31-28.28,65.97-38.08
		c2.6-1.08,5.3-2,8.03-2.65c10.95-2.64,16.91-0.16,22.5,9c9.81-6.35,19.36-13.17,29.5-18.95c12.47-7.11,25.72-12.51,40.41-13.09
		c9.55-0.37,17.8,2.09,22.56,9.91c11.13-7.16,21.67-15.01,33.19-20.96c7.31-3.78,15.98-6.03,24.22-6.68
		c16.98-1.33,26.37,6.1,31.58,22.73c2.16,11.7,0.99,23.23-1.97,34.61c-12.63,48.57-25.34,97.12-38.02,145.67
		c-3.73,14.27-7.46,28.55-11.17,42.75c-1.31,0.42-2.24,0.74-3.19,1.02c-14.64,4.3-29.29,8.6-43.93,12.89
		c-3.74,1.04-7.47,2.07-11.2,3.1c-8.19,2.18-16.38,4.35-24.96,6.63c14.79-56.88,29.4-113.1,44.1-169.65
		c-7.91,3.04-13.13,10.03-16.05,21.26c-7.4,28.46-14.74,56.93-22.11,85.4c-5.79,22.33-11.59,44.66-17.38,66.95
		c-1.5,0.56-2.74,1.01-3.98,1.47c-14.9,5.59-29.81,11.18-44.71,16.77c-3.98,1.43-7.96,2.86-11.94,4.29
		c-8.2,2.88-16.41,5.77-25.27,8.88c15.57-59.62,30.99-118.64,46.75-178.98c-2.92,2.02-4.92,3.12-6.57,4.6
		c-5.75,5.18-8.98,11.87-10.89,19.24c-7.68,29.74-15.34,59.49-23,89.23c-6.09,23.62-12.17,47.24-18.23,70.78
		c-16.7,7.18-33.15,14.25-49.61,21.32c-7.6,3.26-15.21,6.51-22.81,9.77c-4.69,1.83-9.37,3.65-14.67,5.72
		c0.3-1.69,0.41-2.65,0.65-3.58c15.44-59.15,30.92-118.29,46.31-177.46C766.6,454.23,770.35,438.73,774.22,423.26z M893.99,572.24
		c0.45-0.75,0.7-1.01,0.78-1.32c12.75-49.25,25.48-98.5,38.23-147.75c2.76-10.67,7.75-19.86,17.86-25.31
		c3.43-1.85,7.85-3.64,10.59-0.29c1.77,2.16,1.98,6.65,1.22,9.67c-10.91,42.85-22.1,85.62-33.22,128.41
		c-2.32,8.93-4.62,17.86-7.14,27.6c22.94-6.53,44.92-12.79,66.54-18.94c0.47-1.03,0.74-1.46,0.86-1.93
		c14.76-56.45,29.51-112.9,44.25-169.36c3.32-12.71,7.06-25.34,6.09-38.75c-1.18-16.4-12.37-25.42-28.45-22.7
		c-17.39,2.94-31.47,12.22-44.34,23.57c-5.17,4.56-9.72,9.82-15.41,15.63c0.32-2.42,0.43-3.4,0.58-4.38
		c1.48-9.6-2.63-15.75-12.29-16.83c-4.84-0.54-10.02-0.01-14.79,1.13c-22.4,5.38-41.1,17.59-58.27,32.45
		c-2.93,2.54-5.71,5.25-9.21,8.48c0.28-1.84,0.4-2.65,0.54-3.46c2.48-14.16-3.89-19.81-17.51-15c-6.71,2.37-13.32,5.29-19.5,8.8
		c-15.82,9.02-31.38,18.51-48.13,28.46c9.46,3.75,11.31,10.39,10.85,18.02c-0.27,4.46-0.62,9.01-1.73,13.31
		c-15.9,61.65-31.93,123.27-47.92,184.9c-2.66,10.24-5.31,20.48-8.23,31.75c24.18-10.26,47.33-20.08,70.22-29.79
		c0.61-2.3,1.09-4.06,1.54-5.83c12.89-50.07,25.78-100.15,38.68-150.21c2.64-10.24,7.22-19.36,16.03-25.7
		c3.81-2.74,8.23-5.52,12.82-2.4c4.4,2.98,2.78,7.73,1.69,11.92c-11.2,43.12-22.45,86.23-33.68,129.34
		c-2.67,10.23-5.33,20.47-8.25,31.67C848.99,588.73,871.69,580.41,893.99,572.24z"/>
	<path class="st3" d="M1425.69,568.93c-7.94-3.3-15.89-6.6-23.95-9.95c-18.01-58.3-36-116.48-54.11-175.1
		c6.02-7.77,12.12-15.63,18.21-23.5c23.43-30.27,46.86-60.54,70.3-90.79c0.71-0.91,1.57-1.71,2.35-2.55
		c14.38,0.47,28.77,0.93,44.17,1.43c-35.93,46.38-71.36,92.11-107.13,138.27C1392.22,460.69,1408.95,514.81,1425.69,568.93z"/>
	<path class="st6" d="M774.22,423.26c-3.87,15.47-7.62,30.97-11.63,46.39c-15.39,59.16-30.87,118.3-46.31,177.46
		c-0.24,0.93-0.35,1.89-0.65,3.58c5.3-2.07,9.99-3.89,14.67-5.72c-2.7,11.04-5.41,22.07-8.11,33.11
		c-16.1,10.86-32.21,21.72-48.31,32.57c-0.62,0.47-1.24,0.94-1.85,1.41c0,0,0.06-0.02,0.06-0.02c-6.75,3.47-13.52,6.88-20.23,10.42
		c-5.85,3.08-11.62,6.3-18.42,10.01c2.53-9.94,4.87-18.86,7.07-27.82c1.3-5.29,2.38-10.63,3.55-15.94
		c5.09-2.9,10.15-5.83,15.26-8.68c10.2-5.68,20.47-11.24,30.6-17.03c1.36-0.78,2.67-2.47,3.06-3.98
		c8.22-31.5,16.31-63.05,24.43-94.58c8.33-32.35,16.93-64.64,24.89-97.09c2.73-11.13,4.3-22.61,5.55-34.03
		c0.88-8.06,0.33-16.28,0.42-24.43C760.42,407.08,767.8,411.17,774.22,423.26z"/>
	<path class="st2" d="M1069.88,338.91c0.22-1.31,0.54-2.61,0.66-3.93c0.81-8.6-1.98-12.55-10.3-14.59
		c-4.65-1.14-9.32-2.21-14.13-4.49c19.65-7.63,39.23-15.43,58.98-22.81c8.39-3.13,17.03-5.7,25.7-7.93
		c12.95-3.32,18.62-0.48,24.65,11.67c11.62-8.99,23.65-17.16,38.49-19.71c4.22,0.52,8.55,0.63,12.65,1.64
		c10.53,2.61,16.96,10.15,21.89,19.26c0.27,0.67,0.54,1.34,0.81,2c0.55,2.25,1.13,4.49,1.65,6.75c2.99,12.92,1.99,25.81-1.06,38.49
		c-4.69,19.47-8.68,39.21-17.54,57.41c-5.52,11.33-14.41,18.37-27.01,20.48c-8.81,1.48-17.6,3.09-26.4,4.65
		c-7.65,0.87-15.29,1.73-23.8,2.69c5.58-21.89,10.95-42.93,16.57-64.94c-8.67,4.39-12.65,10.87-14.69,18.68
		c-8.07,30.85-16.04,61.73-24.06,92.59c-4.38,16.85-8.81,33.69-13.21,50.56c-1.1,0.23-1.9,0.41-2.7,0.57
		c-14.64,3-29.28,6.01-43.92,9.01c-7.33,1.39-14.65,2.78-21.98,4.17c-4.28,0.71-8.56,1.43-13.31,2.22
		c14.35-55.81,28.53-110.79,42.61-165.79C1063.74,364.72,1066.74,351.8,1069.88,338.91z M1147.69,312.95
		c0.19-1.91,0.42-3.89,0.59-5.88c1.14-13.44-3.96-17.77-17.07-14.51c-0.16,0.04-0.32,0.09-0.48,0.15
		c-19.25,6.82-38.51,13.63-57.75,20.47c-1.13,0.4-2.15,1.1-3.52,1.82c7.67,5.55,8.82,13.19,8.22,21.25
		c-0.33,4.45-1.24,8.91-2.35,13.24c-13.98,54.43-28.06,108.83-42.09,163.25c-1.8,6.96-3.47,13.95-5.32,21.4
		c22.44-4.45,44.1-8.74,65.81-13.04c0.51-1.87,0.96-3.46,1.38-5.06c11.61-44.57,23.23-89.13,34.81-133.7
		c1.85-7.12,5.04-13.52,10.71-18.19c2.97-2.45,6.7-4.38,10.41-5.43c4.38-1.24,7.63,1.51,7.71,6.06c0.05,3.09-0.63,6.26-1.41,9.29
		c-4.1,15.82-8.35,31.61-12.73,48.14c11.51-1.77,21.96-4.04,32.52-4.85c17.98-1.38,28.13-11.46,33.03-27.81
		c4.34-14.49,8.54-29.03,12.27-43.68c3.1-12.17,4.33-24.61,1.6-37.09c-3.28-15-14.47-24.83-27.57-24.17
		c-8.76,0.44-16.54,4-23.51,8.93C1164.29,299.66,1156.11,306.43,1147.69,312.95z"/>
	<path class="st6" d="M536.96,747.82c5.97-3.7,11.87-7.51,17.91-11.09c11.02-6.53,22.13-12.93,34.01-19.85
		c1.99-7.49,4.19-15.73,6.37-23.98c6.25-23.65,12.5-47.3,18.73-70.96c8.03-30.49,15.91-61.03,24.15-91.47
		c2.71-9.99,6.88-19.42,15.3-26.22c0.49-0.4,0.94-0.89,1.5-1.13c0.41-0.18,0.97-0.04,2.63-0.04c-1.27,6.23-2.23,12.22-3.72,18.08
		c-7.56,29.81-15.21,59.59-22.92,89.36c-8.19,31.61-16.49,63.2-24.7,94.81c-0.28,1.08-0.18,2.26-0.27,3.65
		c7.19-3.78,14.14-7.44,21.08-11.09c-0.02,1.36,0.23,2.78-0.09,4.06c-2.93,11.58-5.88,23.16-9.06,34.68
		c-0.47,1.7-1.8,3.63-3.29,4.51c-29.03,17.14-58.15,34.15-87.26,51.17c-0.28,0.16-0.62,0.2-1.47,0.46
		C529.62,777.6,533.29,762.71,536.96,747.82z"/>
	<path class="st7" d="M1069.88,338.91c-3.14,12.89-6.14,25.81-9.43,38.65c-14.09,55-28.26,109.98-42.61,165.79
		c4.75-0.79,9.03-1.51,13.31-2.22c-0.7,3.45-1.39,6.9-2.09,10.34c-27.72,7.8-55.45,15.6-83.17,23.4c0.76-3.65,1.52-7.3,2.28-10.95
		c14.64-4.3,29.29-8.59,43.93-12.89c0.95-0.28,1.88-0.6,3.19-1.02c3.71-14.2,7.44-28.47,11.17-42.75
		c12.68-48.56,25.39-97.1,38.02-145.67c2.96-11.38,4.13-22.91,1.97-34.61C1056.39,326.77,1063.96,331.22,1069.88,338.91z"/>
	<path class="st6" d="M1228.48,298.04c-4.93-9.12-11.36-16.65-21.89-19.26c-4.1-1.02-8.43-1.12-12.65-1.64
		c-0.04-0.37-0.09-0.73-0.13-1.1c27.53-6.52,51.31-22.4,61.23-41.09c-0.96-0.53-1.87-1.28-2.91-1.57
		c-5.37-1.52-7.55-5.44-8.54-10.55c-2.42-12.53,4.36-28.05,15.22-34.53c10.47-6.25,17.63-3.19,18.76,8.96
		c0.7,7.52,0.43,15.44-1.19,22.79c-4.32,19.6-9.61,38.98-14.53,58.44c-0.28,1.13-0.7,2.22-1.05,3.33c-0.29,0.38-0.58,0.77-0.87,1.15
		l0.02-0.04C1249.46,287.97,1238.97,293,1228.48,298.04z"/>
	<path class="st3" d="M1389.1,655.8c1.91,0.58,3.89,1,5.73,1.75c14.63,6.01,29.31,7.07,43.92,0.17
		c20.81-9.83,29.16-32.89,19.93-54.87c-1.41-3.35-3.29-6.5-4.95-9.74c0.32-0.07,0.69-0.27,0.94-0.18
		c18.22,6.96,34.83,29.68,35.47,48.48c0.79,23.33-16.2,41.92-39.61,43.65c-13.12,0.97-25.28-2.14-36.18-9.02
		c-8.54-5.38-16.26-12.06-24.29-18.23C1389.54,657.43,1389.42,656.49,1389.1,655.8z"/>
	<path class="st8" d="M1377.54,243.59c-2.49,0.13-4.97,0.25-7.9,0.4c-10.45,13.91-21.07,28.05-31.7,42.19
		c-0.38-0.17-0.76-0.34-1.14-0.51c1.54-6.3,3.13-12.58,4.6-18.9c5.94-25.47,10.23-51.15,9.43-77.44c-0.47-15.25-3.25-30-9.9-43.86
		c15.91,4.58,25.38,15.85,31.13,30.63c6.97,17.91,7.5,36.66,6.38,55.55C1378.22,235.64,1377.85,239.61,1377.54,243.59z"/>
	<path class="st3" d="M550.84,561.02c-1.46,6.64-2.76,13.33-4.43,19.92c-5.04,19.95-10.21,39.86-15.35,59.78
		c-0.69,2.68-1.48,5.33-2.22,7.99c-5.95,3.54-11.6,7.79-17.91,10.5c-18.67,8.02-37.11-0.55-43.99-19.87
		c15.09,0.37,26.59-7.35,37.08-16.91c19.3-17.57,31.21-39.97,41.05-63.68C547,559.51,548.92,560.26,550.84,561.02z"/>
	<path class="st8" d="M684.4,402.91c-6.94,5.9-13.88,11.81-21.44,18.23c0.05-20.26-3.55-39.12-13.31-56.46
		c4.9,2.43,10.38,4.13,14.6,7.44C674.31,380.03,680.69,390.68,684.4,402.91z"/>
	<path class="st3" d="M659.44,979.9c0.88,0.35,1.76,0.69,2.64,1.04C661.2,980.59,660.32,980.24,659.44,979.9z"/>
	<path class="st0" d="M620.52,746.39c0.38-0.13,0.77-0.26,1.76-0.6c-0.61,0.81-0.84,1.11-1.07,1.41
		C620.98,746.93,620.75,746.66,620.52,746.39z"/>
	<path class="st0" d="M524.52,763.4c0.36-0.05,0.72-0.1,1.08-0.15c-0.08,0.37-0.17,0.73-0.25,1.1
		C525.08,764.03,524.8,763.71,524.52,763.4z"/>
	<path class="st3" d="M1377,647.9c0.53,0.37,1.05,0.74,1.58,1.1C1378.05,648.64,1377.53,648.27,1377,647.9z"/>
	<path class="st3" d="M1387.49,654.86c0.55,0.34,1.09,0.69,1.64,1.03C1388.59,655.54,1388.04,655.2,1387.49,654.86z"/>
	<path class="st9" d="M1325.62,544.72c-11.09-38.96-21.98-77.22-33.3-116.99c-6.49,25.06-12.61,48.66-18.83,72.67
		c-21.13,1.51-42.15,3.02-63.74,4.57c3.65-13.88,7.18-27.32,10.72-40.76c20.24-77.02,40.5-154.04,60.69-231.08
		c3.09-11.79,5.32-23.73,3.83-36.01c-0.36-2.94-1-5.94-2.07-8.69c-3.34-8.63-10.79-12.48-19.71-9.83
		c-14.89,4.42-23.09,14.99-26.12,29.87c-2.25,11.05-2.08,21.61,7.56,30.12c-13.37,13.35-27.87,24.38-46.13,29.05
		c-15.31,3.92-26.1-5.37-26.6-22.36c-0.46-15.5,3.47-30.17,10.91-43.58c21.19-38.19,52.61-63.45,95.66-72.95
		c7.51-1.66,15.67-2.17,23.29-1.23c21.35,2.64,34.43,16.78,39.23,40.57c4.38,21.73,3.59,43.59-0.7,65.02
		c-5.76,28.83-13.23,57.32-19.96,85.95c-0.15,0.63-0.25,1.28,0.36,2.4c17.56-23.39,35.11-46.77,52.37-69.75c22.12,0,43.89,0,65.66,0
		c0.28,0.45,0.57,0.9,0.85,1.35c-33.32,43.02-66.64,86.04-100.13,129.29c18.76,60.72,37.49,121.35,56.28,182.14
		c6.95,2.87,13.88,5.63,20.72,8.59c11.32,4.89,21.33,11.59,28.93,21.51c11.16,14.57,12.79,31.84,4.21,44.62
		c-8.74,13-26.5,18.92-43.61,14.31c-17.51-4.73-30.86-15.84-43.33-28.37c-2.12-2.13-4.92-4.01-7.75-4.93
		c-33.15-10.73-67.22-16.23-102.01-17.4c-96.22-3.24-186.65,19.91-273.12,60.46c-59.8,28.04-114.28,64.22-162.17,109.89
		c-50.97,48.59-91.23,104.43-113.85,171.81c-4.49,13.36-7.83,27.11-11.94,41.54c-5.43-2.36-11.38-4.45-16.84-7.41
		c-33.72-18.29-60.07-44.1-76.85-78.73c-20.02-41.32-15.2-80.77,11.57-117.62c16.7-22.99,38.12-41.35,60.33-58.72
		c56.08-43.85,118.09-77.54,183.14-105.85c77.02-33.53,156.83-57.97,239.73-71.89c38.62-6.48,77.53-10.22,116.74-10.79
		c37.9-0.55,75.49,2.19,112.82,8.7C1323.21,544.33,1323.98,544.45,1325.62,544.72z M916.04,674l-0.06,0.04
		c0.84-0.37,1.67-0.74,2.51-1.12c6.38-3.86,13.01-7.39,19.08-11.68c6.06-4.28,6.8-9.8,3.06-16.11c-4.23-7.14-8.51-14.25-12.8-21.36
		c-4.01-6.64-10.5-9.87-17.76-7.41c-9.52,3.22-18.7,7.46-28.08,11.29c0.56,1.44,0.9,2.34,1.25,3.24c-1.09,0.64-2.17,1.28-3.58,2.11
		c9.86,15.3,19.52,30.28,29.51,45.79c1.91-1.46,3.4-2.6,4.9-3.74l-0.06,0.04C914.68,674.72,915.36,674.36,916.04,674z
		 M972.95,644.99c0.52-0.33,1.04-0.65,1.57-0.98l0.12-0.06c0.35-0.25,0.7-0.51,1.04-0.76c3.77-2.7,7.26-5.88,6.14-10.96
		c-1.12-5.12-4.5-8.67-9.73-10.27c-6.31-1.92-12.67-3.74-18.81-6.11c-2.1-0.81-3.6-3.18-5.37-4.84c3.56,0,7.12,0,10.67,0
		c0.03,0.48,0.06,0.96,0.09,1.43c1.67-0.62,3.35-1.24,5.28-1.95c-0.43-0.98-0.75-1.71-1.07-2.43c1.25-0.61,2.49-1.23,3.79-1.87
		c-7.96-10.36-27.27-6.37-32.74,6.45c-4.3,6.41-1.18,14.24,7.11,17.01c6.26,2.09,12.7,3.65,19.06,5.46
		c3.02,0.86,5.59,2.19,5.89,5.82c-3.7,2.46-7.12,1.93-10.72-1.71c-1.63,1.63-3.15,3.16-4.67,4.68c-1.19,0.7-2.38,1.41-3.57,2.11
		c-0.08,0.62-0.17,1.23-0.25,1.85c3.33,1.31,6.76,3.89,9.96,3.63c4.18-0.34,8.18-2.94,12.25-4.56c0,0-0.04,0.02-0.04,0.02
		c1.35-0.67,2.7-1.34,4.06-2.01C973.01,644.95,972.95,644.99,972.95,644.99z M792.94,761.99c0.38-0.27,0.76-0.54,1.14-0.81
		c4.34-3.62,8.76-7.14,13-10.87c6.85-6.02,7.41-14.86,1.27-22.43c-1.59,1.7-3.15,3.35-4.7,5.01c-0.95,0.84-1.9,1.69-2.5,2.22
		c0.32,3.08,0.6,5.65,0.87,8.23c-7.62,7.7-9.97,7.48-15.95-1.53c-6.61-9.96-13.29-19.87-19.7-29.96c-1.32-2.08-1.56-4.86-2.29-7.31
		c5.03-2.79,9.78-8.5,16.11,0.23c1.65-2.95,2.72-4.86,3.79-6.77c1.06-0.95,2.13-1.89,3.16-2.81c-6.39-9.17-13.12-10.52-22-4.61
		c-2.48,1.65-5.32,2.97-7.29,5.1c-2.68,2.9-4.68,6.43-6.98,9.69c-3.57,6.11-2.68,12.12,0.86,17.77c4.48,7.17,9.3,14.13,13.97,21.18
		c3.12,4.7,6.04,9.54,9.39,14.06c4.97,6.71,12.22,8.01,17.93,3.55L792.94,761.99z M724.08,734.51c3.81-2.88,7.69-5.68,11.37-8.72
		c0.61-0.51,0.41-2,0.59-3.04c1.19-0.87,2.37-1.74,3.7-2.72c-2.06-2.98-3.6-5.21-5.38-7.8c-8.87,7.07-17.35,13.73-25.66,20.6
		c-0.92,0.76-0.91,2.65-1.34,4.02c-0.95,1.03-1.91,2.07-2.88,3.12c14.85,22.06,29.4,43.69,44.24,65.73
		c1.29-1.36,2.06-2.18,2.83-2.99c8.73-8.42,17.45-16.84,26.24-25.31c-1.95-2.9-3.42-5.08-5.05-7.5
		c-5.26,4.99-10.25,9.73-15.53,14.75c-4.94-7.38-9.61-14.34-14.31-21.35c3.81-3.54,7.17-6.66,10.52-9.77
		c-1.95-2.98-3.47-5.29-5.16-7.87c-3.81,3.27-7.25,6.24-10.92,9.39C732.73,747.92,728.41,741.21,724.08,734.51z M867.09,674.02
		c5.95-3.09,8.25-2.54,12.03,3.02c3.13,4.61,6.19,9.27,9.6,14.38c1.68-1.58,2.94-2.77,4.19-3.95c3.46-2.15,6.93-4.3,10.58-6.56
		c-3.63-5.49-7.19-10.3-10.1-15.48c-2.77-4.91-6.14-7.97-12.49-6.37c3.46-7.28,0.89-12.77-3.69-17.67
		c-4.44-4.75-10.42-6.02-16.03-3.9c-9.06,3.43-17.67,8.08-26.55,12.26c0.63,1.49,1,2.37,1.38,3.26c-1.06,0.7-2.12,1.4-3.54,2.34
		c11.15,16.84,22.12,33.4,33.37,50.37c2.12-1.48,3.85-2.69,5.57-3.89c2.98-2.24,5.96-4.47,9.12-6.85
		C875.89,687.77,871.49,680.89,867.09,674.02z M836.01,726.86c4.22-3.23,8.53-6.35,12.64-9.71c6.18-5.06,7.63-12.85,3.35-19.62
		c-6.49-10.23-13.16-20.36-20.03-30.33c-4.93-7.15-13.04-8.88-20.66-4.85c-3.08,1.63-5.99,3.59-9.1,5.15
		c-4.16,2.08-6.77,5.22-7.67,9.79c-3.49,4.96-3.15,10.2-0.12,14.97c7.04,11.08,14.28,22.03,21.79,32.79
		C821.18,732.19,829.3,732.71,836.01,726.86z M705.66,800.07c4.18-0.3,6.75,2.09,8.91,5.27c4.82,7.07,9.69,14.11,15.37,22.38
		c1.03-1.72,1.62-2.72,2.21-3.71c3.55-3.25,7.1-6.51,10.32-9.45c-0.35-1.23-0.36-1.6-0.53-1.85c-5.59-8.26-11.3-16.44-16.77-24.78
		c-2.97-4.54-6.39-7.42-12.15-4.83c0.54-11.39-1.51-17.39-8.72-26.05c-6.35-7.63-14.66-8.24-22-1.52
		c-5.16,4.71-10.28,9.47-15.25,14.37c-0.98,0.97-1.22,2.7-1.8,4.08c-0.86,1.14-1.72,2.28-2.55,3.39
		c16.2,23.83,32.17,47.32,48.26,70.98c1.33-1.13,2.2-1.87,3.06-2.61c3.39-3.32,6.78-6.64,10.13-9.92
		c-7.64-11.21-14.78-21.7-22.05-32.36C703.54,802.09,704.6,801.08,705.66,800.07z"/>
	<path d="M1158.93,427.81c8.8-1.55,17.59-3.17,26.4-4.65c12.61-2.11,21.5-9.14,27.01-20.48c8.86-18.2,12.85-37.93,17.54-57.41
		c3.05-12.67,4.05-25.57,1.06-38.49c-0.52-2.26-1.1-4.5-1.65-6.75c9.48,1.28,16.93,6.08,22.99,13.28
		c-2.85,11.59-5.56,23.22-8.58,34.76c-8.11,30.98-16.28,61.95-24.58,92.88c-6.4,23.82-13.04,47.57-19.86,72.44
		c12.45-0.88,24.08-1.71,35.71-2.53c-1.37,5.72-2.73,11.43-4.1,17.15c-19.75,0.47-39.51,0.62-59.24,1.52
		c-13.26,0.61-26.46,2.28-39.69,3.47c0.14-0.82,0.21-1.65,0.42-2.45C1141.2,496.3,1150.07,462.05,1158.93,427.81z M1157.5,461.34
		c-5.59,21.52-11.1,42.75-16.72,64.38c12.73-0.89,24.76-1.98,36.81-2.51c14.28-0.63,28.58-0.79,42.87-1.13
		c2.48-0.06,5.07,0.13,4.44-3.88c-11.38,0.76-22.41,1.5-33.82,2.26c5.81-22.07,11.53-43.76,17.46-66.27
		C1191.12,456.63,1174.6,458.94,1157.5,461.34z"/>
	<path class="st6" d="M1158.93,427.81c-8.86,34.25-17.73,68.5-26.58,102.75c-0.21,0.8-0.28,1.63-0.42,2.45
		c-13.27,2-26.58,3.83-39.81,6.06c-13.72,2.32-27.37,5.04-41.04,7.58c0.68-3.23,1.37-6.45,2.05-9.68c14.64-3,29.28-6.01,43.92-9.01
		c0.8-0.16,1.6-0.34,2.7-0.57c4.41-16.86,8.83-33.71,13.21-50.56c8.02-30.86,15.99-61.74,24.06-92.59
		c2.04-7.81,6.02-14.29,14.69-18.68c-5.62,22.02-10.99,43.05-16.57,64.94C1143.64,429.54,1151.28,428.67,1158.93,427.81z"/>
	<path class="st10" d="M753.11,635.2c16.45-7.07,32.91-14.14,49.61-21.32c6.06-23.54,12.14-47.16,18.23-70.78
		c7.66-29.74,15.32-59.49,23-89.23c1.91-7.38,5.14-14.06,10.89-19.24c1.65-1.49,3.65-2.58,6.57-4.6
		c-15.76,60.34-31.18,119.36-46.75,178.98c8.87-3.12,17.07-6,25.27-8.88c-1.3,5.78-2.61,11.56-3.91,17.33
		c-25.35,12.84-50.71,25.66-76.04,38.56c-4.71,2.4-9.25,5.12-13.87,7.69C748.45,654.21,750.78,644.71,753.11,635.2z"/>
	<path class="st11" d="M851.87,595.84c14.9-5.59,29.81-11.18,44.71-16.77c1.24-0.46,2.48-0.92,3.98-1.47
		c5.78-22.28,11.59-44.61,17.38-66.95c7.38-28.46,14.72-56.94,22.11-85.4c2.92-11.22,8.14-18.22,16.05-21.26
		c-14.7,56.55-29.32,112.77-44.1,169.65c8.57-2.28,16.76-4.45,24.96-6.63c-0.95,3.93-1.9,7.87-2.85,11.8
		c-28.7,11.06-57.39,22.13-86.09,33.19C849.3,606.63,850.59,601.24,851.87,595.84z"/>
	<path class="st6" d="M1230.86,528.01c1.37-5.72,2.73-11.43,4.1-17.15c11.72-0.95,23.44-1.9,35.16-2.85
		c2.95-0.24,5.9-0.47,9.18-0.74c4.36-16.82,8.67-33.43,12.98-50.04c0.28-0.04,0.57-0.09,0.85-0.13
		c5.73,20.54,11.46,41.09,17.19,61.63c-1.03,3.65-2.06,7.3-3.18,11.29c-6.64,0.58-13.2,1.16-19.77,1.73
		C1268.53,530.5,1249.7,529.26,1230.86,528.01z"/>
	<path class="st1" d="M753.11,635.2c-2.33,9.5-4.67,19.01-7,28.51c-7.97,4.79-15.95,9.58-23.92,14.37
		c2.7-11.04,5.41-22.07,8.11-33.11C737.91,641.72,745.51,638.46,753.11,635.2z M739.66,659.82c0.93-4,1.81-7.75,2.91-12.48
		c-2.77,1.18-4.41,1.88-6.14,2.62c-1.08,4.27-2.13,8.39-3.47,13.65C735.68,662.07,737.47,661.06,739.66,659.82z"/>
	<path class="st12" d="M1252.28,313.31c-6.06-7.19-13.51-12-22.99-13.28c-0.27-0.67-0.54-1.33-0.81-2
		c10.49-5.04,20.98-10.07,31.46-15.11C1257.39,293.06,1254.83,303.19,1252.28,313.31z M1246.45,298.68
		c0.18,0.51,0.35,1.03,0.53,1.54c0.7-0.45,1.4-0.91,2.1-1.36c-0.2-0.34-0.4-0.67-0.61-1.01
		C1247.8,298.13,1247.13,298.4,1246.45,298.68z"/>
	<path class="st12" d="M1053.12,536.96c-0.68,3.23-1.37,6.45-2.05,9.68c-7.34,1.61-14.68,3.22-22.01,4.83
		c0.69-3.45,1.39-6.89,2.09-10.34C1038.47,539.74,1045.79,538.35,1053.12,536.96z"/>
	<path class="st12" d="M851.87,595.84c-1.28,5.39-2.57,10.79-3.85,16.18c-4,1.81-8,3.62-12,5.44c1.3-5.78,2.61-11.55,3.91-17.33
		C843.91,598.7,847.89,597.27,851.87,595.84z"/>
	<path class="st13" d="M934.11,578.83c0.95-3.93,1.9-7.87,2.85-11.8c3.73-1.03,7.47-2.07,11.2-3.1c-0.76,3.65-1.52,7.3-2.28,10.95
		C941.96,576.19,938.03,577.51,934.11,578.83z"/>
	<path class="st14" d="M1287.36,531.75c6.57-0.58,13.14-1.15,19.77-1.73c1.12-3.99,2.15-7.64,3.18-11.29
		c1.61,5.21,3.22,10.42,5.13,16.6C1305.59,534.07,1296.48,532.91,1287.36,531.75z"/>
	<path class="st1" d="M672.03,712.07c0.62-0.47,1.23-0.94,1.85-1.41C673.26,711.13,672.65,711.6,672.03,712.07z"/>
	<path class="st12" d="M1259.93,282.97c0.29-0.38,0.58-0.77,0.87-1.15C1260.51,282.2,1260.22,282.58,1259.93,282.97z"/>
	<path class="st15" d="M653.24,440.45c3.08-2.78,5.12-4.76,7.3-6.56c11.92-9.85,23.59-20.04,35.95-29.3
		c5.6-4.2,12.44-6.92,18.99-9.62c14.07-5.79,23.18,0.63,25.67,15.78c2.21,13.47,0.27,26.77-2.71,39.72
		c-6.65,28.92-14.08,57.66-21.41,86.42c-9.93,38.98-19.96,77.93-30.32,116.8c-0.73,2.73-4.15,5.3-6.93,6.84
		c-20.64,11.42-41.44,22.57-62.81,34.14c0.43-2.61,0.64-4.88,1.2-7.06c9.28-36.16,18.59-72.3,27.92-108.45
		c5.78-22.41,11.67-44.79,17.33-67.23c0.75-2.98,0.91-6.29,0.52-9.34c-0.78-6.17-7.95-9.41-13.13-5.35
		c-4.63,3.63-9.26,8.21-11.76,13.4c-4.78,9.92-8.84,20.34-11.79,30.95c-7.28,26.17-13.74,52.56-20.56,78.86
		c-6.87,26.48-13.78,52.96-20.7,79.43c-1.07,4.08-2.28,8.13-3.44,12.25c-24.22,14.16-48.38,28.28-73.62,43.03
		c8.43-32.61,16.5-63.76,24.54-94.92c7.97-30.89,15.93-61.78,23.88-92.68c9.09-35.32,18.48-70.58,27.02-106.04
		c1.79-7.45,1.96-16.03,0.16-23.44c-3.06-12.59-9.71-14.03-22.01-11.3c-10.55,2.34-18.46,9.47-25.1,17.49
		c-13.66,16.53-22.73,35.56-27.71,56.37c-1.9,7.96-3.12,16.22-3.46,24.39c-0.67,16.09,11.35,22.55,25.5,20.59
		c3.19-0.44,6.33-1.24,10.08-2c-5.69,19.69-14.02,37.25-25.4,53.36c-8.03,11.37-16.99,21.92-29.16,29.01
		c-9.77,5.69-19.95,9.51-30.93,2.1c-6.37-4.3-9.75-10.58-12.16-17.35c-4.2-11.8-5.29-24.06-3.35-36.46
		c1.83-11.67,3.55-23.38,6.03-34.91c4.57-21.25,12.91-41.22,22.15-60.78c16.11-34.09,36.34-65.47,63.21-92.17
		c15.08-14.99,31.67-28.07,51.69-35.95c15.74-6.2,31.44-7.52,46.12,3.08c9.39,6.78,15.01,16.36,18.95,26.96
		C656.07,399.49,657.15,418.97,653.24,440.45z"/>
	<path class="st16" d="M543.92,534.24c-5.21,1.58-10.34,4.17-15.63,4.54c-11.23,0.79-14.93-4.99-15.12-14.06
		c-0.25-11.96,3.53-23.34,7.28-34.6c5.54-16.66,13.89-31.86,25.9-44.59c5.76-6.1,12.54-11.91,21.79-12.51
		c6.04-0.39,8.76,1.88,9.84,7.75c1.76,9.56,0.23,18.77-3,27.79c-0.42,0.76-0.83,1.52-1.24,2.28c0,0,0.06-0.1,0.06-0.1
		c-1.95,1.78-4.23,3.32-5.8,5.39c-12.43,16.42-20.11,35-24.52,55.01C543.26,532.1,543.75,533.21,543.92,534.24z"/>
	<path class="st17" d="M543.92,534.24c-0.17-1.03-0.66-2.14-0.45-3.09c4.41-20.01,12.08-38.59,24.52-55.01
		c1.57-2.07,3.85-3.61,5.8-5.39c-1.29,6.52-2.29,13.11-3.91,19.55c-5.1,20.22-10.39,40.4-15.7,60.57c-0.9,3.44-2.22,6.77-3.34,10.16
		c-1.92-0.75-3.84-1.51-5.76-2.26c2.5-8.7,5.01-17.41,7.83-27.24C549.05,532.68,546.48,533.46,543.92,534.24z M557.03,512.39
		c-0.29-0.2-0.58-0.39-0.87-0.59c-1.25,3.89-2.5,7.78-3.75,11.68c0.48,0.15,0.95,0.29,1.43,0.44
		C554.9,520.07,555.96,516.23,557.03,512.39z"/>
	<path class="st17" d="M573.73,470.84c0.41-0.76,0.83-1.52,1.24-2.28C574.56,469.32,574.15,470.08,573.73,470.84z"/>
	<path class="st9" d="M893.99,572.24c-22.3,8.17-45,16.48-68.69,25.16c2.92-11.2,5.58-21.43,8.25-31.67
		c11.23-43.11,22.47-86.22,33.68-129.34c1.09-4.19,2.71-8.94-1.69-11.92c-4.59-3.11-9.01-0.34-12.82,2.4
		c-8.81,6.34-13.39,15.46-16.03,25.7c-12.9,50.07-25.79,100.14-38.68,150.21c-0.45,1.77-0.93,3.53-1.54,5.83
		c-22.89,9.71-46.04,19.53-70.22,29.79c2.92-11.27,5.57-21.51,8.23-31.75c16-61.63,32.03-123.25,47.92-184.9
		c1.11-4.3,1.46-8.85,1.73-13.31c0.46-7.64-1.38-14.27-10.85-18.02c16.75-9.95,32.3-19.44,48.13-28.46
		c6.17-3.52,12.79-6.44,19.5-8.8c13.62-4.81,19.99,0.84,17.51,15c-0.14,0.81-0.25,1.63-0.54,3.46c3.5-3.23,6.28-5.94,9.21-8.48
		c17.17-14.86,35.87-27.07,58.27-32.45c4.77-1.14,9.95-1.68,14.79-1.13c9.65,1.08,13.77,7.23,12.29,16.83
		c-0.15,0.98-0.26,1.96-0.58,4.38c5.69-5.82,10.24-11.07,15.41-15.63c12.87-11.35,26.96-20.63,44.34-23.57
		c16.08-2.72,27.27,6.3,28.45,22.7c0.96,13.41-2.77,26.04-6.09,38.75c-14.75,56.45-29.49,112.91-44.25,169.36
		c-0.12,0.47-0.4,0.9-0.86,1.93c-21.62,6.15-43.59,12.41-66.54,18.94c2.52-9.74,4.82-18.68,7.14-27.6
		c11.12-42.79,22.31-85.56,33.22-128.41c0.77-3.02,0.55-7.51-1.22-9.67c-2.74-3.35-7.17-1.56-10.59,0.29
		c-10.11,5.45-15.1,14.64-17.86,25.31c-12.76,49.25-25.48,98.5-38.23,147.75C894.69,571.23,894.44,571.49,893.99,572.24z"/>
	<path class="st9" d="M1147.69,312.95c8.42-6.52,16.6-13.29,25.24-19.4c6.97-4.93,14.75-8.49,23.51-8.93
		c13.11-0.66,24.3,9.17,27.57,24.17c2.73,12.49,1.5,24.92-1.6,37.09c-3.73,14.65-7.93,29.2-12.27,43.68
		c-4.9,16.35-15.05,26.42-33.03,27.81c-10.56,0.81-21.01,3.08-32.52,4.85c4.39-16.53,8.63-32.32,12.73-48.14
		c0.78-3.02,1.47-6.2,1.41-9.29c-0.08-4.55-3.34-7.3-7.71-6.06c-3.7,1.05-7.43,2.98-10.41,5.43c-5.67,4.66-8.87,11.07-10.71,18.19
		c-11.57,44.57-23.2,89.14-34.81,133.7c-0.42,1.6-0.87,3.19-1.38,5.06c-21.7,4.3-43.37,8.59-65.81,13.04
		c1.85-7.44,3.52-14.43,5.32-21.4c14.03-54.42,28.11-108.82,42.09-163.25c1.11-4.33,2.02-8.79,2.35-13.24
		c0.59-8.06-0.55-15.7-8.22-21.25c1.37-0.72,2.39-1.41,3.52-1.82c19.24-6.85,38.5-13.66,57.75-20.47c0.16-0.06,0.32-0.11,0.48-0.15
		c13.12-3.26,18.22,1.07,17.07,14.51C1148.11,309.06,1147.88,311.04,1147.69,312.95z"/>
	<path class="st18" d="M665.25,773.98c0.58-1.38,0.82-3.11,1.8-4.08c4.97-4.9,10.09-9.66,15.25-14.37c7.34-6.71,15.65-6.1,22,1.52
		c7.21,8.66,9.26,14.66,8.72,26.05c5.77-2.59,9.18,0.29,12.15,4.83c5.47,8.34,11.18,16.52,16.77,24.78
		c0.17,0.25,0.19,0.62,0.53,1.85c-3.22,2.95-6.77,6.2-10.32,9.45c-5.21-7.72-10.26-15.55-15.67-23.11
		c-3.6-5.02-7.02-5.08-10.82-0.82c-1.06,1.01-2.12,2.02-3.56,3.39c7.26,10.66,14.41,21.15,22.05,32.36
		c-3.35,3.28-6.74,6.6-10.13,9.92c-3.34-4.95-6.66-9.92-10.02-14.86C691.09,811.91,678.17,792.95,665.25,773.98z M682.04,770.02
		c-0.26,0.69-0.53,1.38-0.79,2.07c4.95,7.49,9.91,14.98,15.1,22.82c1.61-1.78,2.71-2.99,3.8-4.2c4.4-3.87,3.31-8.33,1.03-12.63
		c-1.62-3.06-3.68-5.92-5.75-8.72c-4.61-6.24-8.96-5.98-13.42,0.7C682.01,770.04,682.04,770.02,682.04,770.02z"/>
	<path class="st4" d="M794.53,677.28c0.9-4.56,3.51-7.71,7.67-9.79c3.11-1.56,6.02-3.52,9.1-5.15c7.62-4.03,15.73-2.3,20.66,4.85
		c6.88,9.97,13.55,20.1,20.03,30.33c4.29,6.76,2.83,14.56-3.35,19.62c-4.11,3.36-8.42,6.48-12.64,9.71
		c-8.54,2.5-14.37-1.04-18.9-8.13c-5.91-9.26-11.94-18.46-18.18-27.5C795.97,686.95,794.23,682.49,794.53,677.28z M838.23,714.92
		c3.95-2.25,4.75-5.76,2.53-9.28c-6.82-10.79-13.81-21.49-21.21-31.88c-1.27-1.78-5-2.72-7.4-2.43c-1.58,0.19-2.81,3.29-4.19,5.08
		c0.23,1.42,0.04,3.12,0.76,4.23c7.01,10.82,14.07,21.62,21.38,32.24C831.92,715.53,834.78,717.22,838.23,714.92z"/>
	<path class="st19" d="M835.99,653.01c-0.37-0.89-0.75-1.78-1.38-3.26c8.89-4.18,17.49-8.83,26.55-12.26
		c5.61-2.12,11.58-0.85,16.03,3.9c4.58,4.9,7.15,10.39,3.69,17.67c6.35-1.6,9.73,1.46,12.49,6.37c2.92,5.17,6.48,9.98,10.1,15.48
		c-3.65,2.26-7.11,4.41-10.58,6.56c-1.16-1.04-2.56-1.9-3.44-3.14c-2.85-4.04-5.41-8.29-8.26-12.33
		c-3.55-5.03-11.93-4.51-14.87,0.86c-0.11,0.19,0.49,0.77,0.75,1.17c4.4,6.88,8.8,13.76,13.42,20.98c-3.16,2.37-6.14,4.61-9.13,6.85
		c-1.61-1.04-3.75-1.71-4.74-3.16C856.32,683.52,846.18,668.25,835.99,653.01z M868.38,662.54c0.7-2.17,2.63-4.99,1.89-6.41
		c-4.39-8.44-7.59-14.34-19.14-6.09c0.55,0.74,1.11,1.5,1.67,2.26c2.91,4.65,5.83,9.29,8.95,14.26
		C864.26,665.03,866.32,663.79,868.38,662.54z"/>
	<path class="st19" d="M707.37,736.85c0.42-1.37,0.42-3.26,1.34-4.02c8.31-6.86,16.79-13.52,25.66-20.6
		c1.79,2.59,3.33,4.82,5.38,7.8c-1.33,0.98-2.52,1.85-3.7,2.72c-3.9,3.01-7.85,5.97-11.65,9.1c-0.5,0.41-0.23,1.74-0.31,2.65
		c4.32,6.7,8.64,13.41,13.25,20.55c3.67-3.16,7.12-6.12,10.92-9.39c1.69,2.58,3.21,4.89,5.16,7.87c-3.34,3.1-6.71,6.23-10.52,9.77
		c4.7,7.01,9.36,13.97,14.31,21.35c5.28-5.01,10.27-9.75,15.53-14.75c1.63,2.42,3.1,4.6,5.05,7.5
		c-8.78,8.47-17.51,16.89-26.24,25.31C736.82,780.76,722.1,758.81,707.37,736.85z"/>
	<path class="st19" d="M883.23,630.88c-0.35-0.9-0.69-1.8-1.25-3.24c9.38-3.82,18.56-8.06,28.08-11.29
		c7.25-2.45,13.74,0.77,17.76,7.41c4.29,7.1,8.57,14.22,12.8,21.36c3.74,6.31,3,11.83-3.06,16.11c-6.08,4.29-12.7,7.82-19.08,11.68
		c-0.84,0.37-1.67,0.74-2.51,1.12l0.06-0.04c-0.68,0.36-1.36,0.72-2.04,1.08l0.06-0.04c-1.5-1.32-3.37-2.4-4.44-4.01
		C900.74,657.7,892.01,644.28,883.23,630.88z M900.14,630.19c6.85,11.05,13.69,22.1,20.68,33.39c2.41-1.46,4.23-2.56,6.04-3.66
		c3.45-1.94,3.99-4.72,2.03-7.95c-4.82-7.98-9.72-15.91-14.63-23.83c-2.37-3.83-5.73-4.85-9.89-3.14c-1.83,0.76-3.63,1.58-5.75,2.51
		C899.22,628.57,899.68,629.38,900.14,630.19z"/>
	<path class="st19" d="M764.07,704.54c0.74,2.46,0.97,5.23,2.29,7.31c6.4,10.09,13.09,20,19.7,29.96c5.98,9.01,8.34,9.23,15.96,1.53
		c4.29-2.9,3.74-6.55,1.63-10.45c1.55-1.66,3.11-3.31,4.7-5.01c6.14,7.57,5.58,16.41-1.27,22.43c-4.24,3.73-8.66,7.25-13,10.87
		c-0.38,0.27-0.76,0.54-1.14,0.81c0,0,0.07-0.05,0.07-0.05c-7.55,0.28-12.83-3.12-16.82-9.48c-6.63-10.55-13.55-20.93-20.59-31.22
		c-3.33-4.87-5.24-9.95-4.75-15.86c2.29-3.26,4.3-6.79,6.98-9.69c1.97-2.13,4.81-3.46,7.29-5.1c8.89-5.91,15.61-4.56,22,4.61
		c-1.03,0.92-2.1,1.87-3.16,2.81c-1.17-0.04-2.6,0.35-3.45-0.19C774,693.69,766.09,696.86,764.07,704.54z"/>
	<path class="st20" d="M933.93,612.66c5.47-12.82,24.78-16.81,32.74-6.45c-1.3,0.64-2.54,1.25-3.79,1.87
		c-1.65-0.56-3.37-0.99-4.95-1.71c-4.4-2.01-9.14,0.14-10.02,4.65c1.77,1.66,3.27,4.03,5.37,4.84c6.14,2.38,12.5,4.19,18.81,6.11
		c5.23,1.59,8.61,5.15,9.73,10.27c1.11,5.09-2.37,8.26-6.14,10.96c-0.35,0.25-0.7,0.51-1.04,0.76c0,0-0.12,0.06-0.12,0.06
		c-0.52,0.33-1.04,0.65-1.57,0.98c0,0,0.05-0.04,0.05-0.04c-1.35,0.67-2.7,1.34-4.06,2.01c0,0,0.04-0.02,0.04-0.02
		c-1.25,0.22-2.53,0.35-3.75,0.68c-5.59,1.52-10.7,1.23-14.64-3.72c1.52-1.52,3.04-3.05,4.67-4.68c3.6,3.64,7.02,4.17,10.72,1.71
		c0.99-1.5,3.04-3.3,2.71-4.42c-0.51-1.73-2.38-3.68-4.11-4.31c-6.19-2.26-12.52-4.15-18.88-5.91
		C938.66,624.35,934.9,619.76,933.93,612.66z"/>
	<path class="st13" d="M665.25,773.98c12.92,18.97,25.84,37.93,38.75,56.9c3.36,4.94,6.68,9.9,10.02,14.86
		c-0.87,0.74-1.74,1.48-3.06,2.61c-16.09-23.66-32.06-47.15-48.26-70.98C663.53,776.26,664.39,775.12,665.25,773.98z"/>
	<path class="st13" d="M707.37,736.85c14.73,21.95,29.45,43.91,44.18,65.86c-0.77,0.82-1.54,1.63-2.83,2.99
		c-14.83-22.04-29.39-43.67-44.24-65.73C705.46,738.92,706.42,737.89,707.37,736.85z"/>
	<path class="st14" d="M750.86,705.37c-0.49,5.91,1.42,11,4.75,15.86c7.04,10.29,13.95,20.67,20.59,31.22
		c4,6.36,9.27,9.77,16.82,9.48c-5.71,4.46-12.96,3.16-17.93-3.55c-3.35-4.53-6.28-9.36-9.39-14.06
		c-4.67-7.05-9.49-14.01-13.97-21.18C748.18,717.49,747.29,711.48,750.86,705.37z"/>
	<path class="st14" d="M794.53,677.28c-0.3,5.21,1.43,9.67,4.4,13.96c6.24,9.04,12.27,18.23,18.18,27.5
		c4.53,7.09,10.36,10.62,18.9,8.13c-6.71,5.85-14.83,5.33-19.81-1.82c-7.5-10.77-14.75-21.72-21.79-32.79
		C791.39,687.48,791.05,682.24,794.53,677.28z"/>
	<path class="st13" d="M835.99,653.01c10.19,15.24,20.33,30.51,30.65,45.66c0.99,1.46,3.13,2.13,4.74,3.16
		c-1.72,1.2-3.45,2.41-5.57,3.89c-11.25-16.98-22.21-33.53-33.37-50.37C833.87,654.41,834.93,653.71,835.99,653.01z"/>
	<path class="st14" d="M883.23,630.88c8.78,13.4,17.51,26.83,26.39,40.16c1.07,1.61,2.94,2.68,4.44,4.01
		c-1.49,1.14-2.99,2.28-4.9,3.74c-9.99-15.51-19.65-30.49-29.51-45.79C881.06,632.16,882.15,631.52,883.23,630.88z"/>
	<path class="st13" d="M933.93,612.66c0.97,7.1,4.72,11.69,11.78,13.65c6.35,1.76,12.69,3.65,18.88,5.91
		c1.74,0.64,3.61,2.59,4.11,4.31c0.33,1.11-1.73,2.92-2.71,4.42c-0.29-3.63-2.86-4.96-5.89-5.82c-6.36-1.81-12.8-3.38-19.06-5.46
		C932.76,626.9,929.63,619.07,933.93,612.66z"/>
	<path class="st14" d="M705.66,800.07c3.79-4.26,7.22-4.2,10.82,0.82c5.42,7.57,10.47,15.39,15.67,23.11
		c-0.59,1-1.19,1.99-2.21,3.71c-5.68-8.26-10.55-15.3-15.37-22.38C712.41,802.17,709.85,799.78,705.66,800.07z"/>
	<path class="st14" d="M867.09,674.02c-0.27-0.4-0.86-0.97-0.75-1.17c2.95-5.37,11.32-5.89,14.87-0.86
		c2.85,4.04,5.41,8.29,8.26,12.33c0.87,1.24,2.28,2.1,3.44,3.14c-1.26,1.18-2.51,2.37-4.19,3.95c-3.41-5.11-6.47-9.77-9.6-14.38
		C875.34,671.48,873.04,670.93,867.09,674.02z"/>
	<path class="st14" d="M764.07,704.54c2.02-7.68,9.94-10.85,16.45-6.72c0.85,0.54,2.29,0.15,3.45,0.19
		c-1.07,1.91-2.13,3.81-3.79,6.77C773.85,696.04,769.09,701.75,764.07,704.54z"/>
	<path class="st14" d="M950.6,643.91c3.94,4.94,9.05,5.24,14.64,3.72c1.22-0.33,2.5-0.46,3.75-0.68c-4.08,1.63-8.07,4.22-12.25,4.56
		c-3.2,0.26-6.63-2.32-9.96-3.63c0.08-0.62,0.17-1.23,0.25-1.85C948.22,645.32,949.41,644.61,950.6,643.91z"/>
	<path class="st14" d="M947.91,611.01c0.88-4.51,5.63-6.67,10.02-4.65c1.58,0.72,3.3,1.15,4.95,1.71c0.32,0.72,0.63,1.44,1.07,2.43
		c-1.93,0.71-3.6,1.33-5.28,1.95c-0.03-0.48-0.06-0.96-0.09-1.43C955.02,611.01,951.47,611.01,947.91,611.01z"/>
	<path class="st14" d="M724.08,734.51c0.09-0.91-0.18-2.24,0.31-2.65c3.8-3.14,7.75-6.09,11.65-9.1c-0.18,1.04,0.02,2.53-0.59,3.04
		C731.77,728.83,727.9,731.63,724.08,734.51z"/>
	<path class="st13" d="M803.65,732.89c2.1,3.9,2.66,7.55-1.63,10.45c-0.27-2.57-0.54-5.15-0.87-8.23
		C801.74,734.58,802.7,733.74,803.65,732.89z"/>
	<path class="st14" d="M968.95,646.96c1.35-0.67,2.7-1.34,4.06-2.01C971.65,645.62,970.3,646.29,968.95,646.96z"/>
	<path class="st14" d="M915.98,674.03c0.84-0.37,1.67-0.74,2.51-1.12C917.65,673.29,916.81,673.66,915.98,674.03z"/>
	<path class="st14" d="M914,675.07c0.68-0.36,1.36-0.72,2.04-1.08C915.36,674.36,914.68,674.72,914,675.07z"/>
	<path class="st14" d="M792.94,761.99c0.38-0.27,0.76-0.54,1.14-0.81C793.7,761.45,793.32,761.72,792.94,761.99z"/>
	<path class="st14" d="M972.95,644.99c0.52-0.33,1.04-0.65,1.57-0.98C974,644.34,973.48,644.66,972.95,644.99z"/>
	<path class="st14" d="M974.64,643.95c0.35-0.25,0.7-0.51,1.04-0.76C975.34,643.44,974.99,643.7,974.64,643.95z"/>
	<path class="st21" d="M1157.5,461.34c17.1-2.4,33.62-4.71,51.04-7.15c-5.93,22.51-11.64,44.2-17.46,66.27
		c11.41-0.76,22.44-1.5,33.82-2.26c0.63,4.02-1.97,3.82-4.44,3.88c-14.29,0.34-28.59,0.5-42.87,1.13
		c-12.05,0.53-24.08,1.62-36.81,2.51C1146.4,504.09,1151.91,482.86,1157.5,461.34z"/>
	<path class="st2" d="M739.66,659.82c-2.2,1.24-3.99,2.25-6.7,3.79c1.34-5.26,2.38-9.38,3.47-13.65c1.73-0.74,3.38-1.44,6.14-2.62
		C741.47,652.07,740.6,655.82,739.66,659.82z"/>
	<path class="st2" d="M1246.45,298.68c0.67-0.27,1.35-0.55,2.02-0.82c0.2,0.34,0.4,0.67,0.61,1.01c-0.7,0.45-1.4,0.91-2.1,1.36
		C1246.81,299.7,1246.63,299.19,1246.45,298.68z"/>
	<path class="st2" d="M557.03,512.39c-1.06,3.84-2.13,7.68-3.19,11.52c-0.48-0.15-0.95-0.29-1.43-0.44
		c1.25-3.89,2.5-7.78,3.75-11.68C556.45,511.99,556.74,512.19,557.03,512.39z"/>
	<path class="st22" d="M700.15,790.7c-1.1,1.21-2.19,2.42-3.8,4.2c-5.19-7.84-10.14-15.33-15.1-22.82c0.26-0.69,0.53-1.38,0.79-2.07
		c0,0-0.03,0.03-0.03,0.03c2.77,0.2,6.6-0.68,8.1,0.81C695.56,776.22,701.04,781.97,700.15,790.7z"/>
	<path class="st14" d="M700.15,790.7c0.89-8.73-4.6-14.48-10.04-19.85c-1.5-1.48-5.34-0.6-8.1-0.81c4.45-6.67,8.81-6.94,13.42-0.7
		c2.07,2.8,4.13,5.66,5.75,8.72C703.46,782.37,704.55,786.83,700.15,790.7z"/>
	<path class="st14" d="M682.04,770.02c-0.26,0.69-0.53,1.38-0.79,2.07C681.52,771.4,681.78,770.71,682.04,770.02z"/>
	<path class="st22" d="M838.23,714.92c-3.45,2.3-6.31,0.61-8.13-2.04c-7.31-10.62-14.37-21.42-21.38-32.24
		c-0.72-1.11-0.53-2.81-0.76-4.23c5.04-1.84,8.5-0.02,11.28,4.37c5.41,8.53,11.25,16.78,16.51,25.39
		C837.28,708.66,837.44,711.98,838.23,714.92z"/>
	<path class="st14" d="M838.23,714.92c-0.79-2.94-0.95-6.26-2.48-8.75c-5.26-8.61-11.1-16.86-16.51-25.39
		c-2.79-4.39-6.24-6.22-11.28-4.37c1.38-1.79,2.61-4.89,4.19-5.08c2.4-0.29,6.13,0.66,7.4,2.43c7.4,10.39,14.39,21.09,21.21,31.88
		C842.99,709.16,842.18,712.67,838.23,714.92z"/>
	<path class="st22" d="M868.38,662.54c-2.06,1.25-4.12,2.49-6.64,4.02c-3.12-4.97-6.03-9.62-8.95-14.26
		c3.25,0.04,7.43-1.15,9.52,0.43C865.17,654.9,866.43,659.17,868.38,662.54z"/>
	<path class="st14" d="M868.38,662.54c-1.95-3.37-3.21-7.64-6.07-9.81c-2.08-1.58-6.27-0.39-9.52-0.43
		c-0.56-0.75-1.12-1.51-1.67-2.25c11.55-8.26,14.74-2.35,19.14,6.09C871.01,657.55,869.08,660.37,868.38,662.54z"/>
	<path class="st22" d="M926.86,659.91c-1.82,1.1-3.63,2.2-6.04,3.66c-6.99-11.28-13.83-22.33-20.68-33.39
		c6.98-2.57,8.97-1.94,12.76,4.18c4.02,6.49,8.08,12.96,11.92,19.55C925.87,655.71,926.2,657.91,926.86,659.91z"/>
	<path class="st14" d="M926.86,659.91c-0.66-2.01-1-4.2-2.04-5.99c-3.85-6.59-7.9-13.07-11.92-19.55
		c-3.79-6.12-5.78-6.75-12.76-4.18c-0.46-0.81-0.92-1.63-1.52-2.68c2.12-0.93,3.92-1.76,5.75-2.51c4.16-1.72,7.51-0.69,9.89,3.14
		c4.91,7.92,9.81,15.86,14.63,23.83C930.85,655.2,930.32,657.97,926.86,659.91z"/>
</g>
<path d="M1190.55,439.59"/>
<polygon class="st1" points="1166.47,426.46 1139.12,531.98 1131.93,533 1158.93,427.81 "/>
<path class="st14" d="M1131.93,533c0,0,50.79-7.27,93.59-5.29c1.8,0.08,3.58,0.18,5.35,0.3l1.16-4.85c0,0-27.45-5.38-98.8,3.77
	L1131.93,533z"/>
<polygon class="st1" points="1227.48,511.39 1223.18,527.62 1230.86,528.01 1234.96,510.86 "/>
<polygon class="st1" points="1233.11,518.35 1191.09,520.45 1208.04,456.1 1157.5,461.34 1159.28,454.19 1217.54,446.81 
	1199.25,513.39 1234.96,510.86 "/>
</svg>
